<?xml version="1.0" standalone="no"?>
<!DOCTYPE svg PUBLIC "-//W3C//DTD SVG 20010904//EN"
 "http://www.w3.org/TR/2001/REC-SVG-20010904/DTD/svg10.dtd">
<svg version="1.0" xmlns="http://www.w3.org/2000/svg"
 width="681.000000pt" height="681.000000pt" viewBox="0 0 681.000000 681.000000"
 preserveAspectRatio="xMidYMid meet">
<metadata>
Created by potrace 1.14, written by Peter Selinger 2001-2017
</metadata>
<g transform="translate(0.000000,681.000000) scale(0.100000,-0.100000)"
fill="#000000" stroke="none">
<path d="M3455 6602 c-44 -15 -84 -47 -106 -83 -22 -35 -49 -52 -49 -31 0 7
-37 30 -60 37 -3 1 -13 5 -23 9 -20 10 -101 2 -137 -12 -14 -6 -40 -24 -57
-42 l-33 -32 -82 45 c-76 41 -89 45 -145 43 -52 -2 -67 -7 -106 -37 -58 -43
-88 -106 -84 -172 4 -56 -4 -66 -32 -38 -100 100 -264 70 -331 -59 -19 -36
-21 -119 -5 -168 l8 -23 -34 20 c-26 15 -49 19 -98 17 -39 -1 -66 -7 -69 -14
-2 -7 -10 -12 -17 -12 -7 0 -29 -16 -48 -35 -52 -52 -72 -159 -40 -220 11 -22
7 -45 -9 -45 -16 0 -49 -41 -70 -88 -22 -49 -22 -124 0 -159 11 -17 11 -26 1
-45 -7 -13 -15 -25 -19 -28 -13 -9 -30 -73 -30 -109 0 -42 33 -118 57 -136 13
-10 18 -31 19 -91 2 -86 14 -200 27 -279 3 -16 11 -64 17 -105 12 -76 13 -84
30 -175 5 -27 12 -63 15 -80 3 -16 8 -46 12 -65 4 -19 8 -39 8 -45 1 -5 4 -23
8 -40 4 -16 9 -46 12 -65 3 -19 9 -51 14 -70 5 -27 3 -41 -11 -60 -9 -14 -25
-52 -34 -85 -43 -160 -33 -348 20 -368 12 -5 52 -94 61 -137 2 -8 4 -15 5 -15
1 0 3 -9 5 -21 6 -28 30 -117 50 -182 18 -61 51 -123 70 -134 7 -4 18 -29 24
-55 7 -27 16 -62 22 -80 5 -18 12 -41 14 -52 9 -50 64 -237 102 -351 30 -90
31 -91 84 -205 40 -87 42 -93 41 -185 -1 -83 -8 -161 -17 -210 -30 -147 -73
-267 -99 -275 -12 -4 -23 -8 -26 -9 -3 -2 -18 -8 -35 -15 -28 -12 -47 -20
-129 -56 -19 -8 -37 -15 -40 -15 -3 0 -40 -16 -82 -35 -41 -19 -77 -35 -79
-35 -5 0 -102 -43 -171 -76 -28 -13 -58 -24 -67 -24 -10 0 -17 -4 -17 -9 0 -5
-17 -15 -37 -22 -36 -12 -210 -89 -248 -111 -30 -17 -39 -21 -190 -96 -77 -38
-169 -86 -205 -106 -36 -20 -77 -42 -92 -49 -16 -6 -28 -15 -28 -19 0 -4 -5
-8 -11 -8 -12 0 -173 -101 -177 -112 -2 -5 -9 -8 -15 -8 -14 -1 -183 -124
-259 -190 -60 -51 -164 -157 -208 -210 -25 -30 -48 -56 -52 -58 -5 -2 -8 -10
-8 -18 0 -8 -4 -14 -8 -14 -4 0 -16 -15 -27 -32 -10 -18 -30 -51 -43 -73 -14
-22 -25 -42 -24 -45 0 -3 -5 -12 -12 -20 -6 -8 -19 -32 -29 -53 l-17 -37 3406
0 3405 0 -6 23 c-18 60 -76 180 -119 245 -42 65 -188 222 -256 277 -81 65
-150 115 -158 115 -6 0 -12 4 -14 8 -4 11 -124 92 -136 92 -5 0 -17 9 -27 20
-10 11 -22 20 -26 20 -5 0 -66 33 -136 73 -122 70 -502 263 -663 336 -41 19
-109 50 -150 69 -41 18 -95 43 -120 54 -25 11 -73 34 -108 49 -34 16 -64 29
-67 29 -2 0 -38 16 -79 35 -42 19 -78 35 -80 35 -2 0 -25 10 -52 22 -27 12
-51 23 -54 23 -3 0 -21 9 -42 19 -40 19 -46 31 -82 156 -45 160 -49 263 -16
378 5 18 5 34 0 37 -5 3 9 38 30 78 22 40 40 80 40 89 0 9 3 18 8 20 8 3 44
101 69 183 16 56 53 192 58 215 19 88 55 275 55 286 0 8 8 22 19 33 18 18 66
132 75 181 26 129 71 253 111 306 21 27 36 58 37 77 5 101 -4 201 -23 270 -7
23 -13 44 -14 47 -15 52 -55 86 -85 70 -32 -17 -35 6 -15 120 2 14 7 45 10 70
3 25 8 56 10 70 6 33 17 134 21 190 4 65 4 320 -1 355 -2 17 -7 55 -10 85 -4
30 -18 98 -31 150 -19 71 -23 108 -18 150 4 40 2 66 -10 93 -15 37 -15 39 14
90 25 45 28 60 25 114 -5 85 -37 133 -117 174 -32 16 -46 39 -37 62 0 1 -7 22
-17 47 -20 50 -52 83 -105 111 -34 17 -37 21 -32 54 10 77 -47 179 -117 207
-60 25 -161 16 -199 -18 -10 -9 -22 -6 -57 17 -43 29 -84 41 -135 40 -20 -1
-28 5 -33 21 -6 24 -71 98 -86 98 -5 0 -21 5 -37 12 -15 6 -32 10 -38 9 -56
-15 -74 -9 -112 38 -20 26 -49 53 -63 60 -31 14 -128 23 -155 13z"/>
</g>
</svg>
