<svg width="989" height="210" viewBox="0 0 989 210" fill="none" xmlns="http://www.w3.org/2000/svg">
<g filter="url(#filter0_d_114_11)">
<mask id="path-1-outside-1_114_11" maskUnits="userSpaceOnUse" x="4.88281" y="0.078125" width="980" height="202" fill="black">
<rect fill="white" x="4.88281" y="0.078125" width="980" height="202"/>
<path d="M8.61719 25.8828C7.57552 23.9297 6.85938 22.237 6.46875 20.8047C6.07812 19.3724 5.88281 17.6797 5.88281 15.7266C5.88281 15.0755 5.88281 14.4245 5.88281 13.7734C6.01302 13.1224 6.20833 12.5365 6.46875 12.0156C6.85938 11.4948 7.38021 11.1042 8.03125 10.8438C8.8125 10.5833 9.78906 10.6484 10.9609 11.0391C11.7422 11.2995 12.5234 11.8203 13.3047 12.6016C14.0859 13.2526 14.8021 14.1641 15.4531 15.3359C16.2344 16.3776 16.8203 17.4193 17.2109 18.4609C17.7318 19.5026 18.1224 20.349 18.3828 21C21.3776 18.6562 24.6328 16.3125 28.1484 13.9688C31.6641 11.4948 35.375 9.34635 39.2812 7.52344C43.3177 5.57031 47.3542 4.00781 51.3906 2.83594C55.5573 1.66406 59.5286 1.07812 63.3047 1.07812C64.6068 1.07812 66.1693 1.20833 67.9922 1.46875C69.8151 1.72917 71.5078 2.1849 73.0703 2.83594C74.763 3.48698 76.1302 4.39844 77.1719 5.57031C78.3438 6.61198 78.9297 7.97917 78.9297 9.67188C79.3203 12.7969 78.9297 15.987 77.7578 19.2422C76.7161 22.3672 75.2188 25.4271 73.2656 28.4219C71.4427 31.4167 69.2943 34.3464 66.8203 37.2109C64.4766 40.0755 62.0677 42.8099 59.5938 45.4141C57.25 48.0182 55.0365 50.4271 52.9531 52.6406C51 54.8542 49.5026 56.8073 48.4609 58.5C53.7995 54.9844 59.5286 52.4453 65.6484 50.8828C71.8984 49.1901 78.1484 48.3438 84.3984 48.3438C86.3516 48.3438 88.4349 48.474 90.6484 48.7344C92.9922 48.8646 95.1406 49.3203 97.0938 50.1016C99.0469 50.8828 100.674 51.9896 101.977 53.4219C103.279 54.8542 103.93 56.8724 103.93 59.4766C103.93 62.0807 102.693 65.7266 100.219 70.4141C97.875 74.9714 94.75 80.0495 90.8438 85.6484C87.0677 91.1172 82.8359 96.7161 78.1484 102.445C73.5911 108.044 69.1641 113.188 64.8672 117.875C60.5703 122.432 56.6641 126.208 53.1484 129.203C49.763 132.068 47.3542 133.5 45.9219 133.5L40.8438 131.156C41.4948 128.682 43.1224 125.753 45.7266 122.367C48.3307 118.982 51.3906 115.466 54.9062 111.82C58.5521 108.174 62.3932 104.333 66.4297 100.297C70.5964 96.2604 74.5026 92.3542 78.1484 88.5781C81.7943 84.8021 84.9844 81.1562 87.7188 77.6406C90.4531 73.9948 92.2109 70.7396 92.9922 67.875C93.9036 64.8802 93.5781 62.4062 92.0156 60.4531C90.4531 58.3698 87.263 56.8073 82.4453 55.7656C77.3672 55.7656 72.0286 56.6771 66.4297 58.5C60.8307 60.1927 55.4922 62.6667 50.4141 65.9219C45.3359 69.1771 40.7786 73.0833 36.7422 77.6406C32.8359 82.0677 29.9714 87.0807 28.1484 92.6797C28.1484 96.3255 28.4089 99.9062 28.9297 103.422C29.5807 106.938 30.2318 110.453 30.8828 113.969C31.5339 117.354 32.1198 120.805 32.6406 124.32C33.2917 127.836 33.6172 131.352 33.6172 134.867C33.6172 137.471 33.4219 139.62 33.0312 141.312C32.6406 143.005 31.013 143.852 28.1484 143.852C27.888 143.852 27.4323 143.852 26.7812 143.852C26.2604 143.721 26 143.591 26 143.461L8.61719 25.8828ZM21.1172 38.1875C21.1172 43.0052 21.4427 48.1484 22.0938 53.6172C22.7448 58.9557 24.0469 63.9036 26 68.4609C27.9531 66.7682 30.362 64.5547 33.2266 61.8203C36.2214 58.9557 39.2812 55.8958 42.4062 52.6406C45.6615 49.3854 48.7865 45.9349 51.7812 42.2891C54.9062 38.6432 57.7057 35.1276 60.1797 31.7422C62.7839 28.3568 64.8021 25.2318 66.2344 22.3672C67.7969 19.3724 68.5781 16.8984 68.5781 14.9453C68.5781 13.3828 68.0573 12.3411 67.0156 11.8203C66.1042 11.2995 64.9974 11.0391 63.6953 11.0391C60.5703 11.0391 56.5339 11.6901 51.5859 12.9922C46.7682 14.2943 42.0807 16.1172 37.5234 18.4609C33.0964 20.8047 29.2552 23.6693 26 27.0547C22.7448 30.3099 21.1172 34.0208 21.1172 38.1875Z"/>
<path d="M113.5 51.8594V50.2969C113.5 48.9948 113.956 48.0833 114.867 47.5625C115.909 47.0417 117.081 46.7812 118.383 46.7812C119.424 46.7812 120.401 46.9115 121.312 47.1719C122.224 47.3021 122.94 48.0182 123.461 49.3203C123.852 51.2734 124.242 54.0078 124.633 57.5234C125.023 60.9089 125.479 64.6849 126 68.8516C126.521 73.0182 127.042 77.4453 127.562 82.1328C128.214 86.6901 128.799 91.0521 129.32 95.2188C129.971 99.2552 130.622 102.901 131.273 106.156C131.924 109.411 132.641 111.885 133.422 113.578C133.031 101.078 133.422 90.2708 134.594 81.1562C135.766 71.9115 137.979 64.4245 141.234 58.6953C144.62 52.8359 149.177 48.7995 154.906 46.5859C160.766 44.2422 168.057 43.7214 176.781 45.0234C180.818 45.0234 182.836 47.1719 182.836 51.4688C182.836 53.1615 181.729 54.3333 179.516 54.9844C177.302 55.5052 174.828 55.8958 172.094 56.1562C169.359 56.2865 166.69 56.4818 164.086 56.7422C161.482 57.0026 159.594 57.6536 158.422 58.6953C153.734 61.2995 150.414 65.3359 148.461 70.8047C146.638 76.2734 145.336 82.7188 144.555 90.1406C143.773 97.5625 143.188 105.701 142.797 114.555C142.536 123.279 141.69 132.263 140.258 141.508C140.258 142.81 139.737 143.786 138.695 144.438C137.654 145.089 136.352 145.414 134.789 145.414C133.357 145.414 131.924 145.089 130.492 144.438C129.19 143.786 128.148 142.81 127.367 141.508L113.5 51.8594Z"/>
<path d="M242.406 123.344C241.885 124.906 240.583 127.055 238.5 129.789C236.547 132.393 234.203 135.062 231.469 137.797C228.734 140.401 225.87 142.745 222.875 144.828C220.01 146.781 217.471 147.758 215.258 147.758C211.091 147.758 207.641 145.805 204.906 141.898C202.302 137.992 200.284 132.979 198.852 126.859C197.419 120.74 196.443 113.969 195.922 106.547C195.401 98.9948 195.076 91.638 194.945 84.4766C194.815 77.3151 194.75 70.8047 194.75 64.9453C194.75 59.0859 194.555 54.6589 194.164 51.6641C194.685 50.362 195.336 49.5807 196.117 49.3203C197.029 49.0599 198.07 48.9297 199.242 48.9297C200.284 48.9297 201.195 49.0599 201.977 49.3203C202.888 49.5807 203.669 50.362 204.32 51.6641C204.32 53.0964 204.32 55.5052 204.32 58.8906C204.451 62.276 204.646 66.1172 204.906 70.4141C205.167 74.5807 205.427 79.0078 205.688 83.6953C205.948 88.2526 206.143 92.6146 206.273 96.7812C206.534 100.948 206.729 104.724 206.859 108.109C207.12 111.365 207.315 113.773 207.445 115.336C207.576 116.247 207.706 117.745 207.836 119.828C208.096 121.911 208.422 124.125 208.812 126.469C209.333 128.682 209.919 130.701 210.57 132.523C211.352 134.346 212.328 135.323 213.5 135.453C215.453 135.453 217.406 134.607 219.359 132.914C221.443 131.221 223.461 129.073 225.414 126.469C227.367 123.865 229.19 121 230.883 117.875C232.576 114.75 234.073 111.755 235.375 108.891C236.807 105.896 237.849 103.227 238.5 100.883C239.281 98.5391 239.737 96.8464 239.867 95.8047C240.128 93.5911 240.388 90.4661 240.648 86.4297C240.909 82.263 241.104 77.8359 241.234 73.1484C241.365 68.4609 241.43 64.0339 241.43 59.8672C241.56 55.7005 241.625 52.5104 241.625 50.2969L252.367 50.8828C252.497 61.4297 252.432 71 252.172 79.5938C251.911 88.0573 251.846 96.0651 251.977 103.617C252.107 111.039 252.693 118.266 253.734 125.297C254.776 132.328 256.664 139.62 259.398 147.172C259.008 147.562 258.227 148.083 257.055 148.734C255.883 149.516 255.036 149.906 254.516 149.906C251.26 149.906 249.047 148.799 247.875 146.586C246.833 144.503 246.117 142.029 245.727 139.164C245.466 136.169 245.206 133.24 244.945 130.375C244.815 127.38 243.969 125.036 242.406 123.344Z"/>
<path d="M278.539 143.461C277.107 125.883 275.805 108.305 274.633 90.7266C273.591 73.0182 272.419 54.6589 271.117 35.6484C271.117 32.5234 272.81 30.9609 276.195 30.9609H277.758C278.148 30.9609 278.604 31.4818 279.125 32.5234C279.646 33.5651 280.167 35.5182 280.688 38.3828C281.339 41.1172 281.99 45.349 282.641 51.0781C283.422 56.6771 284.333 64.0339 285.375 73.1484C286.417 82.263 287.589 93.6562 288.891 107.328C291.625 98.474 293.773 89.8802 295.336 81.5469C296.898 73.2135 298.917 65.6615 301.391 58.8906C303.865 51.9896 307.315 45.9349 311.742 40.7266C316.299 35.5182 322.81 31.6771 331.273 29.2031C335.961 29.9844 339.737 32.849 342.602 37.7969C345.466 42.6146 347.745 48.6042 349.438 55.7656C351.13 62.9271 352.302 70.7396 352.953 79.2031C353.604 87.5365 353.995 95.5443 354.125 103.227C354.255 110.909 354.32 117.81 354.32 123.93C354.32 129.919 354.451 134.216 354.711 136.82C354.32 137.862 353.734 138.773 352.953 139.555C352.172 140.336 351.26 140.922 350.219 141.312C349.307 141.573 348.396 141.638 347.484 141.508C346.573 141.247 345.727 140.531 344.945 139.359C344.945 137.927 344.815 134.997 344.555 130.57C344.294 126.143 343.969 121 343.578 115.141C343.188 109.151 342.732 102.836 342.211 96.1953C341.82 89.4245 341.43 83.1094 341.039 77.25C340.779 71.2604 340.518 66.0521 340.258 61.625C339.997 57.1979 339.802 54.2682 339.672 52.8359C336.938 48.0182 334.203 45.2839 331.469 44.6328C328.865 43.9818 326.195 44.8281 323.461 47.1719C320.857 49.5156 318.318 53.0964 315.844 57.9141C313.37 62.7318 311.026 68.2005 308.812 74.3203C306.599 80.3099 304.516 86.625 302.562 93.2656C300.609 99.9062 298.917 106.352 297.484 112.602C296.052 118.721 294.815 124.32 293.773 129.398C292.862 134.346 292.276 138.188 292.016 140.922C291.625 141.833 290.779 142.745 289.477 143.656C288.305 144.438 287.003 145.023 285.57 145.414C284.268 145.805 282.901 145.935 281.469 145.805C280.167 145.544 279.19 144.763 278.539 143.461Z"/>
<path d="M366.82 119.242C365.909 113.253 365.453 107.458 365.453 101.859C365.453 96.1302 365.779 90.3359 366.43 84.4766C367.211 78.6172 368.253 72.5625 369.555 66.3125C370.987 59.9323 372.615 53.0964 374.438 45.8047C374.438 44.3724 374.828 43.0703 375.609 41.8984C376.391 40.5964 377.432 39.5547 378.734 38.7734C380.036 37.862 381.404 37.1458 382.836 36.625C384.268 36.1042 385.635 35.8438 386.938 35.8438C389.802 35.8438 392.406 36.7552 394.75 38.5781C397.094 40.401 399.177 42.6146 401 45.2188C402.953 47.8229 404.581 50.6224 405.883 53.6172C407.315 56.4818 408.487 58.9557 409.398 61.0391C410.44 65.5964 411.156 70.8047 411.547 76.6641C412.068 82.3932 412.133 88.2526 411.742 94.2422C411.352 100.232 410.44 106.156 409.008 112.016C407.576 117.745 405.557 123.018 402.953 127.836C400.349 132.654 396.964 136.69 392.797 139.945C388.76 143.201 383.943 145.219 378.344 146C375.349 146 373.07 145.023 371.508 143.07C369.945 140.987 368.773 138.513 367.992 135.648C367.341 132.654 366.951 129.659 366.82 126.664C366.82 123.669 366.82 121.195 366.82 119.242ZM376.781 118.656C376.781 119.958 376.781 121.195 376.781 122.367C376.911 123.539 377.042 124.711 377.172 125.883C377.432 126.924 377.693 128.096 377.953 129.398C378.344 130.57 378.799 131.938 379.32 133.5H380.492C383.617 133.5 386.286 132.458 388.5 130.375C390.714 128.292 392.602 125.622 394.164 122.367C395.727 118.982 397.029 115.271 398.07 111.234C399.112 107.068 399.893 103.031 400.414 99.125C401.065 95.0885 401.456 91.3776 401.586 87.9922C401.846 84.4766 401.977 81.6771 401.977 79.5938V75.6875C401.977 73.9948 401.911 72.1068 401.781 70.0234C401.651 67.8099 401.391 65.5964 401 63.3828C400.74 61.0391 400.284 58.9557 399.633 57.1328C398.982 55.1797 398.135 53.6172 397.094 52.4453C396.052 51.2734 394.685 50.6875 392.992 50.6875C390.128 49.776 387.654 49.9714 385.57 51.2734C383.617 52.5755 381.99 54.7891 380.688 57.9141C379.516 60.9089 378.604 64.6198 377.953 69.0469C377.302 73.474 376.911 78.3568 376.781 83.6953C376.651 89.0339 376.586 94.6979 376.586 100.688C376.716 106.677 376.781 112.667 376.781 118.656Z"/>
<path d="M514.867 138.383C514.607 121.846 514.281 107.719 513.891 96C513.63 84.151 513.37 74.1901 513.109 66.1172C512.849 58.0443 512.523 51.6641 512.133 46.9766C511.872 42.1589 511.677 38.3177 511.547 35.4531C511.417 32.5885 511.286 30.5703 511.156 29.3984C511.026 28.0964 510.961 26.8594 510.961 25.6875C510.961 23.474 511.612 22.1068 512.914 21.5859C514.216 20.9349 515.844 20.6094 517.797 20.6094C520.01 20.6094 521.703 21.0651 522.875 21.9766C524.177 22.7578 524.828 24.9062 524.828 28.4219L528.539 133.5C528.669 133.5 529.32 133.37 530.492 133.109C531.664 132.849 533.031 132.458 534.594 131.938C536.156 131.417 537.784 130.896 539.477 130.375C541.169 129.724 542.536 129.138 543.578 128.617C545.141 127.966 547.484 126.924 550.609 125.492C553.734 124.06 557.25 122.432 561.156 120.609C565.062 118.786 569.164 116.898 573.461 114.945C577.888 112.862 582.055 110.974 585.961 109.281C589.997 107.458 593.513 105.831 596.508 104.398C599.633 102.836 601.977 101.729 603.539 101.078H605.883C606.664 101.078 607.445 101.143 608.227 101.273C609.008 101.404 609.659 101.729 610.18 102.25C610.701 102.771 611.026 103.552 611.156 104.594C611.156 105.896 610.896 107.003 610.375 107.914C609.984 108.826 609.398 109.867 608.617 111.039C600.935 112.471 593.383 115.076 585.961 118.852C578.669 122.628 571.378 126.534 564.086 130.57C556.924 134.607 549.633 138.188 542.211 141.312C534.919 144.438 527.432 146 519.75 146C516.495 146 514.867 143.461 514.867 138.383Z"/>
<path d="M617.602 119.242C616.69 113.253 616.234 107.458 616.234 101.859C616.234 96.1302 616.56 90.3359 617.211 84.4766C617.992 78.6172 619.034 72.5625 620.336 66.3125C621.768 59.9323 623.396 53.0964 625.219 45.8047C625.219 44.3724 625.609 43.0703 626.391 41.8984C627.172 40.5964 628.214 39.5547 629.516 38.7734C630.818 37.862 632.185 37.1458 633.617 36.625C635.049 36.1042 636.417 35.8438 637.719 35.8438C640.583 35.8438 643.188 36.7552 645.531 38.5781C647.875 40.401 649.958 42.6146 651.781 45.2188C653.734 47.8229 655.362 50.6224 656.664 53.6172C658.096 56.4818 659.268 58.9557 660.18 61.0391C661.221 65.5964 661.938 70.8047 662.328 76.6641C662.849 82.3932 662.914 88.2526 662.523 94.2422C662.133 100.232 661.221 106.156 659.789 112.016C658.357 117.745 656.339 123.018 653.734 127.836C651.13 132.654 647.745 136.69 643.578 139.945C639.542 143.201 634.724 145.219 629.125 146C626.13 146 623.852 145.023 622.289 143.07C620.727 140.987 619.555 138.513 618.773 135.648C618.122 132.654 617.732 129.659 617.602 126.664C617.602 123.669 617.602 121.195 617.602 119.242ZM627.562 118.656C627.562 119.958 627.562 121.195 627.562 122.367C627.693 123.539 627.823 124.711 627.953 125.883C628.214 126.924 628.474 128.096 628.734 129.398C629.125 130.57 629.581 131.938 630.102 133.5H631.273C634.398 133.5 637.068 132.458 639.281 130.375C641.495 128.292 643.383 125.622 644.945 122.367C646.508 118.982 647.81 115.271 648.852 111.234C649.893 107.068 650.674 103.031 651.195 99.125C651.846 95.0885 652.237 91.3776 652.367 87.9922C652.628 84.4766 652.758 81.6771 652.758 79.5938V75.6875C652.758 73.9948 652.693 72.1068 652.562 70.0234C652.432 67.8099 652.172 65.5964 651.781 63.3828C651.521 61.0391 651.065 58.9557 650.414 57.1328C649.763 55.1797 648.917 53.6172 647.875 52.4453C646.833 51.2734 645.466 50.6875 643.773 50.6875C640.909 49.776 638.435 49.9714 636.352 51.2734C634.398 52.5755 632.771 54.7891 631.469 57.9141C630.297 60.9089 629.385 64.6198 628.734 69.0469C628.083 73.474 627.693 78.3568 627.562 83.6953C627.432 89.0339 627.367 94.6979 627.367 100.688C627.497 106.677 627.562 112.667 627.562 118.656ZM637.328 28.6172C633.812 27.8359 631.859 26.4688 631.469 24.5156C631.208 22.5625 631.924 20.349 633.617 17.875C635.31 15.2708 637.654 12.5365 640.648 9.67188C643.643 6.67708 646.638 3.8125 649.633 1.07812C651.846 1.07812 653.344 1.66406 654.125 2.83594C654.906 4.00781 655.297 5.375 655.297 6.9375V8.30469C655.036 9.86719 654.255 11.5599 652.953 13.3828C651.651 15.2057 650.089 17.0286 648.266 18.8516C646.443 20.6745 644.49 22.4323 642.406 24.125C640.453 25.8177 638.76 27.3151 637.328 28.6172Z"/>
<path d="M671.703 197.367C673.135 183.695 673.917 170.674 674.047 158.305C674.307 146.065 674.242 133.956 673.852 121.977C673.591 109.997 673.135 97.888 672.484 85.6484C671.833 73.4089 671.443 60.4531 671.312 46.7812C671.703 44.9583 672.159 43.5911 672.68 42.6797C673.331 41.638 674.958 41.3776 677.562 41.8984C680.297 42.5495 681.924 44.112 682.445 46.5859C682.966 48.9297 683.096 51.599 682.836 54.5938C682.576 57.5885 682.185 60.5833 681.664 63.5781C681.143 66.5729 681.143 68.9818 681.664 70.8047C685.831 67.8099 690.258 64.6849 694.945 61.4297C699.633 58.1745 704.516 55.3099 709.594 52.8359C714.672 50.2318 719.945 48.3438 725.414 47.1719C730.883 45.8698 736.352 45.8047 741.82 46.9766C748.591 48.5391 753.279 50.8828 755.883 54.0078C758.617 57.0026 759.659 60.5182 759.008 64.5547C758.487 68.4609 756.664 72.8229 753.539 77.6406C750.414 82.3281 746.573 87.0807 742.016 91.8984C737.458 96.7161 732.38 101.469 726.781 106.156C721.182 110.844 715.714 115.206 710.375 119.242C705.036 123.148 700.023 126.599 695.336 129.594C690.779 132.589 687.133 134.802 684.398 136.234C684.268 137.797 684.073 140.271 683.812 143.656C683.682 146.911 683.487 150.622 683.227 154.789C683.096 158.956 682.901 163.318 682.641 167.875C682.51 172.432 682.315 176.794 682.055 180.961C681.924 185.128 681.729 188.839 681.469 192.094C681.339 195.349 681.273 197.758 681.273 199.32C681.013 199.451 680.557 199.581 679.906 199.711C679.255 199.841 678.474 199.906 677.562 199.906C676.651 200.036 675.805 200.102 675.023 200.102C674.242 200.232 673.721 200.232 673.461 200.102C673.07 200.102 672.68 199.711 672.289 198.93C671.898 198.279 671.703 197.758 671.703 197.367ZM682.641 90.3359C682.25 92.1589 682.12 94.4375 682.25 97.1719C682.51 99.776 682.771 102.576 683.031 105.57C683.422 108.435 683.812 111.234 684.203 113.969C684.594 116.703 684.854 119.047 684.984 121C689.932 117.224 695.661 113.383 702.172 109.477C708.812 105.57 715.193 101.339 721.312 96.7812C727.562 92.224 733.096 87.1458 737.914 81.5469C742.732 75.9479 745.922 69.6328 747.484 62.6016C748.005 59.8672 747.745 58.0443 746.703 57.1328C745.792 56.0911 744.164 55.375 741.82 54.9844C736.872 53.9427 731.208 54.3333 724.828 56.1562C718.448 57.849 712.263 60.388 706.273 63.7734C700.414 67.1589 695.271 71.1953 690.844 75.8828C686.417 80.5703 683.682 85.388 682.641 90.3359Z"/>
<path d="M773.266 103.812C772.615 103.943 771.638 104.138 770.336 104.398C769.034 104.659 767.667 104.724 766.234 104.594C764.802 104.464 763.565 104.073 762.523 103.422C761.352 102.771 760.766 101.664 760.766 100.102C760.766 99.1901 760.961 98.5391 761.352 98.1484C761.742 97.7578 762.393 97.1719 763.305 96.3906C766.169 94.0469 768.578 91.0521 770.531 87.4062C772.615 83.6302 774.503 79.6589 776.195 75.4922C777.888 71.1953 779.646 66.9635 781.469 62.7969C783.422 58.5 785.635 54.6589 788.109 51.2734C790.583 47.888 793.643 45.1536 797.289 43.0703C800.935 40.987 805.427 40.0104 810.766 40.1406C812.979 40.1406 815.453 40.6615 818.188 41.7031C820.922 42.7448 823.461 44.1771 825.805 46C828.148 47.6927 830.102 49.776 831.664 52.25C833.227 54.724 834.008 57.4583 834.008 60.4531C834.659 61.4948 834.008 62.9922 832.055 64.9453C830.232 66.8984 827.693 69.0469 824.438 71.3906C821.182 73.6042 817.471 75.9479 813.305 78.4219C809.268 80.7656 805.362 82.9792 801.586 85.0625C797.81 87.1458 794.49 88.9688 791.625 90.5312C788.76 92.0938 786.872 93.2656 785.961 94.0469C785.31 95.349 784.789 96.8464 784.398 98.5391C784.008 100.232 783.682 101.859 783.422 103.422C783.292 104.854 783.161 106.221 783.031 107.523C783.031 108.695 783.031 109.607 783.031 110.258C783.031 112.732 782.901 115.466 782.641 118.461C782.51 121.456 782.641 124.32 783.031 127.055C783.552 129.659 784.659 131.872 786.352 133.695C788.044 135.388 790.909 136.234 794.945 136.234C799.242 136.234 803.279 135.193 807.055 133.109C810.831 130.896 814.346 128.227 817.602 125.102C820.857 121.977 823.786 118.591 826.391 114.945C829.125 111.299 831.534 107.914 833.617 104.789C835.831 101.534 837.784 98.8646 839.477 96.7812C841.169 94.6979 842.602 93.6562 843.773 93.6562C845.076 93.6562 846.443 93.9167 847.875 94.4375C849.438 94.8281 850.219 95.8698 850.219 97.5625C850.219 99.9062 849.242 102.706 847.289 105.961C845.466 109.216 842.992 112.667 839.867 116.312C836.872 119.958 833.357 123.604 829.32 127.25C825.414 130.766 821.443 133.956 817.406 136.82C813.37 139.555 809.398 141.833 805.492 143.656C801.586 145.349 798.135 146.195 795.141 146.195C789.281 146.195 784.854 144.763 781.859 141.898C778.865 139.034 776.716 135.453 775.414 131.156C774.242 126.859 773.591 122.302 773.461 117.484C773.461 112.536 773.396 107.979 773.266 103.812ZM809.203 51.0781C806.99 51.0781 804.646 52.1849 802.172 54.3984C799.698 56.4818 797.354 59.0859 795.141 62.2109C793.057 65.2057 791.299 68.3307 789.867 71.5859C788.565 74.7109 787.914 77.3151 787.914 79.3984C789.867 79.3984 792.667 78.6823 796.312 77.25C800.089 75.6875 803.799 73.7995 807.445 71.5859C811.091 69.3724 814.281 67.0286 817.016 64.5547C819.75 62.0807 821.117 59.737 821.117 57.5234C821.117 56.3516 820.661 55.375 819.75 54.5938C818.839 53.8125 817.732 53.1615 816.43 52.6406C815.258 52.1198 814.021 51.7292 812.719 51.4688C811.417 51.2083 810.245 51.0781 809.203 51.0781Z"/>
<path d="M886.547 147.953C885.896 144.958 886.091 141.117 887.133 136.43C888.305 131.612 889.932 126.404 892.016 120.805C894.099 115.206 896.508 109.411 899.242 103.422C902.107 97.4323 904.841 91.7682 907.445 86.4297C910.18 80.9609 912.589 76.013 914.672 71.5859C916.755 67.1589 918.188 63.6432 918.969 61.0391C918.969 60.9089 918.969 60.7786 918.969 60.6484C919.099 60.388 919.164 60.1276 919.164 59.8672C919.164 59.6068 919.099 59.3464 918.969 59.0859C918.969 58.8255 918.969 58.6302 918.969 58.5C915.323 59.9323 911.286 61.5599 906.859 63.3828C902.562 65.0755 898.201 66.7682 893.773 68.4609C889.346 70.0234 884.984 71.5208 880.688 72.9531C876.521 74.2552 872.68 75.2969 869.164 76.0781C868.643 76.4688 867.732 76.3385 866.43 75.6875C865.128 75.0365 863.891 74.1901 862.719 73.1484C861.547 71.9766 860.701 70.8047 860.18 69.6328C859.789 68.3307 860.245 67.1589 861.547 66.1172C865.844 66.1172 870.922 65.2708 876.781 63.5781C882.641 61.7552 888.565 59.6719 894.555 57.3281C900.674 54.9844 906.599 52.7057 912.328 50.4922C918.188 48.1484 923.331 46.5208 927.758 45.6094C932.055 45.6094 934.203 47.7578 934.203 52.0547C934.203 56.7422 933.357 61.3646 931.664 65.9219C930.102 70.349 928.083 74.7109 925.609 79.0078C923.266 83.3047 920.661 87.5365 917.797 91.7031C915.062 95.8698 912.458 100.102 909.984 104.398C907.641 108.695 905.622 113.057 903.93 117.484C902.237 121.911 901.391 126.469 901.391 131.156V133.5L972.875 118.852H974.242C976.065 118.852 977.693 119.438 979.125 120.609C980.688 121.651 981.794 122.888 982.445 124.32C983.227 125.622 983.292 126.99 982.641 128.422C981.99 129.854 980.362 130.896 977.758 131.547C977.237 131.547 976.651 131.612 976 131.742C975.479 131.872 974.242 132.133 972.289 132.523C970.466 132.784 967.732 133.24 964.086 133.891C960.44 134.411 955.297 135.258 948.656 136.43C942.146 137.602 933.812 139.164 923.656 141.117C913.63 142.94 901.26 145.219 886.547 147.953Z"/>
</mask>
<path d="M8.61719 25.8828C7.57552 23.9297 6.85938 22.237 6.46875 20.8047C6.07812 19.3724 5.88281 17.6797 5.88281 15.7266C5.88281 15.0755 5.88281 14.4245 5.88281 13.7734C6.01302 13.1224 6.20833 12.5365 6.46875 12.0156C6.85938 11.4948 7.38021 11.1042 8.03125 10.8438C8.8125 10.5833 9.78906 10.6484 10.9609 11.0391C11.7422 11.2995 12.5234 11.8203 13.3047 12.6016C14.0859 13.2526 14.8021 14.1641 15.4531 15.3359C16.2344 16.3776 16.8203 17.4193 17.2109 18.4609C17.7318 19.5026 18.1224 20.349 18.3828 21C21.3776 18.6562 24.6328 16.3125 28.1484 13.9688C31.6641 11.4948 35.375 9.34635 39.2812 7.52344C43.3177 5.57031 47.3542 4.00781 51.3906 2.83594C55.5573 1.66406 59.5286 1.07812 63.3047 1.07812C64.6068 1.07812 66.1693 1.20833 67.9922 1.46875C69.8151 1.72917 71.5078 2.1849 73.0703 2.83594C74.763 3.48698 76.1302 4.39844 77.1719 5.57031C78.3438 6.61198 78.9297 7.97917 78.9297 9.67188C79.3203 12.7969 78.9297 15.987 77.7578 19.2422C76.7161 22.3672 75.2188 25.4271 73.2656 28.4219C71.4427 31.4167 69.2943 34.3464 66.8203 37.2109C64.4766 40.0755 62.0677 42.8099 59.5938 45.4141C57.25 48.0182 55.0365 50.4271 52.9531 52.6406C51 54.8542 49.5026 56.8073 48.4609 58.5C53.7995 54.9844 59.5286 52.4453 65.6484 50.8828C71.8984 49.1901 78.1484 48.3438 84.3984 48.3438C86.3516 48.3438 88.4349 48.474 90.6484 48.7344C92.9922 48.8646 95.1406 49.3203 97.0938 50.1016C99.0469 50.8828 100.674 51.9896 101.977 53.4219C103.279 54.8542 103.93 56.8724 103.93 59.4766C103.93 62.0807 102.693 65.7266 100.219 70.4141C97.875 74.9714 94.75 80.0495 90.8438 85.6484C87.0677 91.1172 82.8359 96.7161 78.1484 102.445C73.5911 108.044 69.1641 113.188 64.8672 117.875C60.5703 122.432 56.6641 126.208 53.1484 129.203C49.763 132.068 47.3542 133.5 45.9219 133.5L40.8438 131.156C41.4948 128.682 43.1224 125.753 45.7266 122.367C48.3307 118.982 51.3906 115.466 54.9062 111.82C58.5521 108.174 62.3932 104.333 66.4297 100.297C70.5964 96.2604 74.5026 92.3542 78.1484 88.5781C81.7943 84.8021 84.9844 81.1562 87.7188 77.6406C90.4531 73.9948 92.2109 70.7396 92.9922 67.875C93.9036 64.8802 93.5781 62.4062 92.0156 60.4531C90.4531 58.3698 87.263 56.8073 82.4453 55.7656C77.3672 55.7656 72.0286 56.6771 66.4297 58.5C60.8307 60.1927 55.4922 62.6667 50.4141 65.9219C45.3359 69.1771 40.7786 73.0833 36.7422 77.6406C32.8359 82.0677 29.9714 87.0807 28.1484 92.6797C28.1484 96.3255 28.4089 99.9062 28.9297 103.422C29.5807 106.938 30.2318 110.453 30.8828 113.969C31.5339 117.354 32.1198 120.805 32.6406 124.32C33.2917 127.836 33.6172 131.352 33.6172 134.867C33.6172 137.471 33.4219 139.62 33.0312 141.312C32.6406 143.005 31.013 143.852 28.1484 143.852C27.888 143.852 27.4323 143.852 26.7812 143.852C26.2604 143.721 26 143.591 26 143.461L8.61719 25.8828ZM21.1172 38.1875C21.1172 43.0052 21.4427 48.1484 22.0938 53.6172C22.7448 58.9557 24.0469 63.9036 26 68.4609C27.9531 66.7682 30.362 64.5547 33.2266 61.8203C36.2214 58.9557 39.2812 55.8958 42.4062 52.6406C45.6615 49.3854 48.7865 45.9349 51.7812 42.2891C54.9062 38.6432 57.7057 35.1276 60.1797 31.7422C62.7839 28.3568 64.8021 25.2318 66.2344 22.3672C67.7969 19.3724 68.5781 16.8984 68.5781 14.9453C68.5781 13.3828 68.0573 12.3411 67.0156 11.8203C66.1042 11.2995 64.9974 11.0391 63.6953 11.0391C60.5703 11.0391 56.5339 11.6901 51.5859 12.9922C46.7682 14.2943 42.0807 16.1172 37.5234 18.4609C33.0964 20.8047 29.2552 23.6693 26 27.0547C22.7448 30.3099 21.1172 34.0208 21.1172 38.1875Z" fill="black"/>
<path d="M113.5 51.8594V50.2969C113.5 48.9948 113.956 48.0833 114.867 47.5625C115.909 47.0417 117.081 46.7812 118.383 46.7812C119.424 46.7812 120.401 46.9115 121.312 47.1719C122.224 47.3021 122.94 48.0182 123.461 49.3203C123.852 51.2734 124.242 54.0078 124.633 57.5234C125.023 60.9089 125.479 64.6849 126 68.8516C126.521 73.0182 127.042 77.4453 127.562 82.1328C128.214 86.6901 128.799 91.0521 129.32 95.2188C129.971 99.2552 130.622 102.901 131.273 106.156C131.924 109.411 132.641 111.885 133.422 113.578C133.031 101.078 133.422 90.2708 134.594 81.1562C135.766 71.9115 137.979 64.4245 141.234 58.6953C144.62 52.8359 149.177 48.7995 154.906 46.5859C160.766 44.2422 168.057 43.7214 176.781 45.0234C180.818 45.0234 182.836 47.1719 182.836 51.4688C182.836 53.1615 181.729 54.3333 179.516 54.9844C177.302 55.5052 174.828 55.8958 172.094 56.1562C169.359 56.2865 166.69 56.4818 164.086 56.7422C161.482 57.0026 159.594 57.6536 158.422 58.6953C153.734 61.2995 150.414 65.3359 148.461 70.8047C146.638 76.2734 145.336 82.7188 144.555 90.1406C143.773 97.5625 143.188 105.701 142.797 114.555C142.536 123.279 141.69 132.263 140.258 141.508C140.258 142.81 139.737 143.786 138.695 144.438C137.654 145.089 136.352 145.414 134.789 145.414C133.357 145.414 131.924 145.089 130.492 144.438C129.19 143.786 128.148 142.81 127.367 141.508L113.5 51.8594Z" fill="black"/>
<path d="M242.406 123.344C241.885 124.906 240.583 127.055 238.5 129.789C236.547 132.393 234.203 135.062 231.469 137.797C228.734 140.401 225.87 142.745 222.875 144.828C220.01 146.781 217.471 147.758 215.258 147.758C211.091 147.758 207.641 145.805 204.906 141.898C202.302 137.992 200.284 132.979 198.852 126.859C197.419 120.74 196.443 113.969 195.922 106.547C195.401 98.9948 195.076 91.638 194.945 84.4766C194.815 77.3151 194.75 70.8047 194.75 64.9453C194.75 59.0859 194.555 54.6589 194.164 51.6641C194.685 50.362 195.336 49.5807 196.117 49.3203C197.029 49.0599 198.07 48.9297 199.242 48.9297C200.284 48.9297 201.195 49.0599 201.977 49.3203C202.888 49.5807 203.669 50.362 204.32 51.6641C204.32 53.0964 204.32 55.5052 204.32 58.8906C204.451 62.276 204.646 66.1172 204.906 70.4141C205.167 74.5807 205.427 79.0078 205.688 83.6953C205.948 88.2526 206.143 92.6146 206.273 96.7812C206.534 100.948 206.729 104.724 206.859 108.109C207.12 111.365 207.315 113.773 207.445 115.336C207.576 116.247 207.706 117.745 207.836 119.828C208.096 121.911 208.422 124.125 208.812 126.469C209.333 128.682 209.919 130.701 210.57 132.523C211.352 134.346 212.328 135.323 213.5 135.453C215.453 135.453 217.406 134.607 219.359 132.914C221.443 131.221 223.461 129.073 225.414 126.469C227.367 123.865 229.19 121 230.883 117.875C232.576 114.75 234.073 111.755 235.375 108.891C236.807 105.896 237.849 103.227 238.5 100.883C239.281 98.5391 239.737 96.8464 239.867 95.8047C240.128 93.5911 240.388 90.4661 240.648 86.4297C240.909 82.263 241.104 77.8359 241.234 73.1484C241.365 68.4609 241.43 64.0339 241.43 59.8672C241.56 55.7005 241.625 52.5104 241.625 50.2969L252.367 50.8828C252.497 61.4297 252.432 71 252.172 79.5938C251.911 88.0573 251.846 96.0651 251.977 103.617C252.107 111.039 252.693 118.266 253.734 125.297C254.776 132.328 256.664 139.62 259.398 147.172C259.008 147.562 258.227 148.083 257.055 148.734C255.883 149.516 255.036 149.906 254.516 149.906C251.26 149.906 249.047 148.799 247.875 146.586C246.833 144.503 246.117 142.029 245.727 139.164C245.466 136.169 245.206 133.24 244.945 130.375C244.815 127.38 243.969 125.036 242.406 123.344Z" fill="black"/>
<path d="M278.539 143.461C277.107 125.883 275.805 108.305 274.633 90.7266C273.591 73.0182 272.419 54.6589 271.117 35.6484C271.117 32.5234 272.81 30.9609 276.195 30.9609H277.758C278.148 30.9609 278.604 31.4818 279.125 32.5234C279.646 33.5651 280.167 35.5182 280.688 38.3828C281.339 41.1172 281.99 45.349 282.641 51.0781C283.422 56.6771 284.333 64.0339 285.375 73.1484C286.417 82.263 287.589 93.6562 288.891 107.328C291.625 98.474 293.773 89.8802 295.336 81.5469C296.898 73.2135 298.917 65.6615 301.391 58.8906C303.865 51.9896 307.315 45.9349 311.742 40.7266C316.299 35.5182 322.81 31.6771 331.273 29.2031C335.961 29.9844 339.737 32.849 342.602 37.7969C345.466 42.6146 347.745 48.6042 349.438 55.7656C351.13 62.9271 352.302 70.7396 352.953 79.2031C353.604 87.5365 353.995 95.5443 354.125 103.227C354.255 110.909 354.32 117.81 354.32 123.93C354.32 129.919 354.451 134.216 354.711 136.82C354.32 137.862 353.734 138.773 352.953 139.555C352.172 140.336 351.26 140.922 350.219 141.312C349.307 141.573 348.396 141.638 347.484 141.508C346.573 141.247 345.727 140.531 344.945 139.359C344.945 137.927 344.815 134.997 344.555 130.57C344.294 126.143 343.969 121 343.578 115.141C343.188 109.151 342.732 102.836 342.211 96.1953C341.82 89.4245 341.43 83.1094 341.039 77.25C340.779 71.2604 340.518 66.0521 340.258 61.625C339.997 57.1979 339.802 54.2682 339.672 52.8359C336.938 48.0182 334.203 45.2839 331.469 44.6328C328.865 43.9818 326.195 44.8281 323.461 47.1719C320.857 49.5156 318.318 53.0964 315.844 57.9141C313.37 62.7318 311.026 68.2005 308.812 74.3203C306.599 80.3099 304.516 86.625 302.562 93.2656C300.609 99.9062 298.917 106.352 297.484 112.602C296.052 118.721 294.815 124.32 293.773 129.398C292.862 134.346 292.276 138.188 292.016 140.922C291.625 141.833 290.779 142.745 289.477 143.656C288.305 144.438 287.003 145.023 285.57 145.414C284.268 145.805 282.901 145.935 281.469 145.805C280.167 145.544 279.19 144.763 278.539 143.461Z" fill="black"/>
<path d="M366.82 119.242C365.909 113.253 365.453 107.458 365.453 101.859C365.453 96.1302 365.779 90.3359 366.43 84.4766C367.211 78.6172 368.253 72.5625 369.555 66.3125C370.987 59.9323 372.615 53.0964 374.438 45.8047C374.438 44.3724 374.828 43.0703 375.609 41.8984C376.391 40.5964 377.432 39.5547 378.734 38.7734C380.036 37.862 381.404 37.1458 382.836 36.625C384.268 36.1042 385.635 35.8438 386.938 35.8438C389.802 35.8438 392.406 36.7552 394.75 38.5781C397.094 40.401 399.177 42.6146 401 45.2188C402.953 47.8229 404.581 50.6224 405.883 53.6172C407.315 56.4818 408.487 58.9557 409.398 61.0391C410.44 65.5964 411.156 70.8047 411.547 76.6641C412.068 82.3932 412.133 88.2526 411.742 94.2422C411.352 100.232 410.44 106.156 409.008 112.016C407.576 117.745 405.557 123.018 402.953 127.836C400.349 132.654 396.964 136.69 392.797 139.945C388.76 143.201 383.943 145.219 378.344 146C375.349 146 373.07 145.023 371.508 143.07C369.945 140.987 368.773 138.513 367.992 135.648C367.341 132.654 366.951 129.659 366.82 126.664C366.82 123.669 366.82 121.195 366.82 119.242ZM376.781 118.656C376.781 119.958 376.781 121.195 376.781 122.367C376.911 123.539 377.042 124.711 377.172 125.883C377.432 126.924 377.693 128.096 377.953 129.398C378.344 130.57 378.799 131.938 379.32 133.5H380.492C383.617 133.5 386.286 132.458 388.5 130.375C390.714 128.292 392.602 125.622 394.164 122.367C395.727 118.982 397.029 115.271 398.07 111.234C399.112 107.068 399.893 103.031 400.414 99.125C401.065 95.0885 401.456 91.3776 401.586 87.9922C401.846 84.4766 401.977 81.6771 401.977 79.5938V75.6875C401.977 73.9948 401.911 72.1068 401.781 70.0234C401.651 67.8099 401.391 65.5964 401 63.3828C400.74 61.0391 400.284 58.9557 399.633 57.1328C398.982 55.1797 398.135 53.6172 397.094 52.4453C396.052 51.2734 394.685 50.6875 392.992 50.6875C390.128 49.776 387.654 49.9714 385.57 51.2734C383.617 52.5755 381.99 54.7891 380.688 57.9141C379.516 60.9089 378.604 64.6198 377.953 69.0469C377.302 73.474 376.911 78.3568 376.781 83.6953C376.651 89.0339 376.586 94.6979 376.586 100.688C376.716 106.677 376.781 112.667 376.781 118.656Z" fill="black"/>
<path d="M514.867 138.383C514.607 121.846 514.281 107.719 513.891 96C513.63 84.151 513.37 74.1901 513.109 66.1172C512.849 58.0443 512.523 51.6641 512.133 46.9766C511.872 42.1589 511.677 38.3177 511.547 35.4531C511.417 32.5885 511.286 30.5703 511.156 29.3984C511.026 28.0964 510.961 26.8594 510.961 25.6875C510.961 23.474 511.612 22.1068 512.914 21.5859C514.216 20.9349 515.844 20.6094 517.797 20.6094C520.01 20.6094 521.703 21.0651 522.875 21.9766C524.177 22.7578 524.828 24.9062 524.828 28.4219L528.539 133.5C528.669 133.5 529.32 133.37 530.492 133.109C531.664 132.849 533.031 132.458 534.594 131.938C536.156 131.417 537.784 130.896 539.477 130.375C541.169 129.724 542.536 129.138 543.578 128.617C545.141 127.966 547.484 126.924 550.609 125.492C553.734 124.06 557.25 122.432 561.156 120.609C565.062 118.786 569.164 116.898 573.461 114.945C577.888 112.862 582.055 110.974 585.961 109.281C589.997 107.458 593.513 105.831 596.508 104.398C599.633 102.836 601.977 101.729 603.539 101.078H605.883C606.664 101.078 607.445 101.143 608.227 101.273C609.008 101.404 609.659 101.729 610.18 102.25C610.701 102.771 611.026 103.552 611.156 104.594C611.156 105.896 610.896 107.003 610.375 107.914C609.984 108.826 609.398 109.867 608.617 111.039C600.935 112.471 593.383 115.076 585.961 118.852C578.669 122.628 571.378 126.534 564.086 130.57C556.924 134.607 549.633 138.188 542.211 141.312C534.919 144.438 527.432 146 519.75 146C516.495 146 514.867 143.461 514.867 138.383Z" fill="black"/>
<path d="M617.602 119.242C616.69 113.253 616.234 107.458 616.234 101.859C616.234 96.1302 616.56 90.3359 617.211 84.4766C617.992 78.6172 619.034 72.5625 620.336 66.3125C621.768 59.9323 623.396 53.0964 625.219 45.8047C625.219 44.3724 625.609 43.0703 626.391 41.8984C627.172 40.5964 628.214 39.5547 629.516 38.7734C630.818 37.862 632.185 37.1458 633.617 36.625C635.049 36.1042 636.417 35.8438 637.719 35.8438C640.583 35.8438 643.188 36.7552 645.531 38.5781C647.875 40.401 649.958 42.6146 651.781 45.2188C653.734 47.8229 655.362 50.6224 656.664 53.6172C658.096 56.4818 659.268 58.9557 660.18 61.0391C661.221 65.5964 661.938 70.8047 662.328 76.6641C662.849 82.3932 662.914 88.2526 662.523 94.2422C662.133 100.232 661.221 106.156 659.789 112.016C658.357 117.745 656.339 123.018 653.734 127.836C651.13 132.654 647.745 136.69 643.578 139.945C639.542 143.201 634.724 145.219 629.125 146C626.13 146 623.852 145.023 622.289 143.07C620.727 140.987 619.555 138.513 618.773 135.648C618.122 132.654 617.732 129.659 617.602 126.664C617.602 123.669 617.602 121.195 617.602 119.242ZM627.562 118.656C627.562 119.958 627.562 121.195 627.562 122.367C627.693 123.539 627.823 124.711 627.953 125.883C628.214 126.924 628.474 128.096 628.734 129.398C629.125 130.57 629.581 131.938 630.102 133.5H631.273C634.398 133.5 637.068 132.458 639.281 130.375C641.495 128.292 643.383 125.622 644.945 122.367C646.508 118.982 647.81 115.271 648.852 111.234C649.893 107.068 650.674 103.031 651.195 99.125C651.846 95.0885 652.237 91.3776 652.367 87.9922C652.628 84.4766 652.758 81.6771 652.758 79.5938V75.6875C652.758 73.9948 652.693 72.1068 652.562 70.0234C652.432 67.8099 652.172 65.5964 651.781 63.3828C651.521 61.0391 651.065 58.9557 650.414 57.1328C649.763 55.1797 648.917 53.6172 647.875 52.4453C646.833 51.2734 645.466 50.6875 643.773 50.6875C640.909 49.776 638.435 49.9714 636.352 51.2734C634.398 52.5755 632.771 54.7891 631.469 57.9141C630.297 60.9089 629.385 64.6198 628.734 69.0469C628.083 73.474 627.693 78.3568 627.562 83.6953C627.432 89.0339 627.367 94.6979 627.367 100.688C627.497 106.677 627.562 112.667 627.562 118.656ZM637.328 28.6172C633.812 27.8359 631.859 26.4688 631.469 24.5156C631.208 22.5625 631.924 20.349 633.617 17.875C635.31 15.2708 637.654 12.5365 640.648 9.67188C643.643 6.67708 646.638 3.8125 649.633 1.07812C651.846 1.07812 653.344 1.66406 654.125 2.83594C654.906 4.00781 655.297 5.375 655.297 6.9375V8.30469C655.036 9.86719 654.255 11.5599 652.953 13.3828C651.651 15.2057 650.089 17.0286 648.266 18.8516C646.443 20.6745 644.49 22.4323 642.406 24.125C640.453 25.8177 638.76 27.3151 637.328 28.6172Z" fill="black"/>
<path d="M671.703 197.367C673.135 183.695 673.917 170.674 674.047 158.305C674.307 146.065 674.242 133.956 673.852 121.977C673.591 109.997 673.135 97.888 672.484 85.6484C671.833 73.4089 671.443 60.4531 671.312 46.7812C671.703 44.9583 672.159 43.5911 672.68 42.6797C673.331 41.638 674.958 41.3776 677.562 41.8984C680.297 42.5495 681.924 44.112 682.445 46.5859C682.966 48.9297 683.096 51.599 682.836 54.5938C682.576 57.5885 682.185 60.5833 681.664 63.5781C681.143 66.5729 681.143 68.9818 681.664 70.8047C685.831 67.8099 690.258 64.6849 694.945 61.4297C699.633 58.1745 704.516 55.3099 709.594 52.8359C714.672 50.2318 719.945 48.3438 725.414 47.1719C730.883 45.8698 736.352 45.8047 741.82 46.9766C748.591 48.5391 753.279 50.8828 755.883 54.0078C758.617 57.0026 759.659 60.5182 759.008 64.5547C758.487 68.4609 756.664 72.8229 753.539 77.6406C750.414 82.3281 746.573 87.0807 742.016 91.8984C737.458 96.7161 732.38 101.469 726.781 106.156C721.182 110.844 715.714 115.206 710.375 119.242C705.036 123.148 700.023 126.599 695.336 129.594C690.779 132.589 687.133 134.802 684.398 136.234C684.268 137.797 684.073 140.271 683.812 143.656C683.682 146.911 683.487 150.622 683.227 154.789C683.096 158.956 682.901 163.318 682.641 167.875C682.51 172.432 682.315 176.794 682.055 180.961C681.924 185.128 681.729 188.839 681.469 192.094C681.339 195.349 681.273 197.758 681.273 199.32C681.013 199.451 680.557 199.581 679.906 199.711C679.255 199.841 678.474 199.906 677.562 199.906C676.651 200.036 675.805 200.102 675.023 200.102C674.242 200.232 673.721 200.232 673.461 200.102C673.07 200.102 672.68 199.711 672.289 198.93C671.898 198.279 671.703 197.758 671.703 197.367ZM682.641 90.3359C682.25 92.1589 682.12 94.4375 682.25 97.1719C682.51 99.776 682.771 102.576 683.031 105.57C683.422 108.435 683.812 111.234 684.203 113.969C684.594 116.703 684.854 119.047 684.984 121C689.932 117.224 695.661 113.383 702.172 109.477C708.812 105.57 715.193 101.339 721.312 96.7812C727.562 92.224 733.096 87.1458 737.914 81.5469C742.732 75.9479 745.922 69.6328 747.484 62.6016C748.005 59.8672 747.745 58.0443 746.703 57.1328C745.792 56.0911 744.164 55.375 741.82 54.9844C736.872 53.9427 731.208 54.3333 724.828 56.1562C718.448 57.849 712.263 60.388 706.273 63.7734C700.414 67.1589 695.271 71.1953 690.844 75.8828C686.417 80.5703 683.682 85.388 682.641 90.3359Z" fill="black"/>
<path d="M773.266 103.812C772.615 103.943 771.638 104.138 770.336 104.398C769.034 104.659 767.667 104.724 766.234 104.594C764.802 104.464 763.565 104.073 762.523 103.422C761.352 102.771 760.766 101.664 760.766 100.102C760.766 99.1901 760.961 98.5391 761.352 98.1484C761.742 97.7578 762.393 97.1719 763.305 96.3906C766.169 94.0469 768.578 91.0521 770.531 87.4062C772.615 83.6302 774.503 79.6589 776.195 75.4922C777.888 71.1953 779.646 66.9635 781.469 62.7969C783.422 58.5 785.635 54.6589 788.109 51.2734C790.583 47.888 793.643 45.1536 797.289 43.0703C800.935 40.987 805.427 40.0104 810.766 40.1406C812.979 40.1406 815.453 40.6615 818.188 41.7031C820.922 42.7448 823.461 44.1771 825.805 46C828.148 47.6927 830.102 49.776 831.664 52.25C833.227 54.724 834.008 57.4583 834.008 60.4531C834.659 61.4948 834.008 62.9922 832.055 64.9453C830.232 66.8984 827.693 69.0469 824.438 71.3906C821.182 73.6042 817.471 75.9479 813.305 78.4219C809.268 80.7656 805.362 82.9792 801.586 85.0625C797.81 87.1458 794.49 88.9688 791.625 90.5312C788.76 92.0938 786.872 93.2656 785.961 94.0469C785.31 95.349 784.789 96.8464 784.398 98.5391C784.008 100.232 783.682 101.859 783.422 103.422C783.292 104.854 783.161 106.221 783.031 107.523C783.031 108.695 783.031 109.607 783.031 110.258C783.031 112.732 782.901 115.466 782.641 118.461C782.51 121.456 782.641 124.32 783.031 127.055C783.552 129.659 784.659 131.872 786.352 133.695C788.044 135.388 790.909 136.234 794.945 136.234C799.242 136.234 803.279 135.193 807.055 133.109C810.831 130.896 814.346 128.227 817.602 125.102C820.857 121.977 823.786 118.591 826.391 114.945C829.125 111.299 831.534 107.914 833.617 104.789C835.831 101.534 837.784 98.8646 839.477 96.7812C841.169 94.6979 842.602 93.6562 843.773 93.6562C845.076 93.6562 846.443 93.9167 847.875 94.4375C849.438 94.8281 850.219 95.8698 850.219 97.5625C850.219 99.9062 849.242 102.706 847.289 105.961C845.466 109.216 842.992 112.667 839.867 116.312C836.872 119.958 833.357 123.604 829.32 127.25C825.414 130.766 821.443 133.956 817.406 136.82C813.37 139.555 809.398 141.833 805.492 143.656C801.586 145.349 798.135 146.195 795.141 146.195C789.281 146.195 784.854 144.763 781.859 141.898C778.865 139.034 776.716 135.453 775.414 131.156C774.242 126.859 773.591 122.302 773.461 117.484C773.461 112.536 773.396 107.979 773.266 103.812ZM809.203 51.0781C806.99 51.0781 804.646 52.1849 802.172 54.3984C799.698 56.4818 797.354 59.0859 795.141 62.2109C793.057 65.2057 791.299 68.3307 789.867 71.5859C788.565 74.7109 787.914 77.3151 787.914 79.3984C789.867 79.3984 792.667 78.6823 796.312 77.25C800.089 75.6875 803.799 73.7995 807.445 71.5859C811.091 69.3724 814.281 67.0286 817.016 64.5547C819.75 62.0807 821.117 59.737 821.117 57.5234C821.117 56.3516 820.661 55.375 819.75 54.5938C818.839 53.8125 817.732 53.1615 816.43 52.6406C815.258 52.1198 814.021 51.7292 812.719 51.4688C811.417 51.2083 810.245 51.0781 809.203 51.0781Z" fill="black"/>
<path d="M886.547 147.953C885.896 144.958 886.091 141.117 887.133 136.43C888.305 131.612 889.932 126.404 892.016 120.805C894.099 115.206 896.508 109.411 899.242 103.422C902.107 97.4323 904.841 91.7682 907.445 86.4297C910.18 80.9609 912.589 76.013 914.672 71.5859C916.755 67.1589 918.188 63.6432 918.969 61.0391C918.969 60.9089 918.969 60.7786 918.969 60.6484C919.099 60.388 919.164 60.1276 919.164 59.8672C919.164 59.6068 919.099 59.3464 918.969 59.0859C918.969 58.8255 918.969 58.6302 918.969 58.5C915.323 59.9323 911.286 61.5599 906.859 63.3828C902.562 65.0755 898.201 66.7682 893.773 68.4609C889.346 70.0234 884.984 71.5208 880.688 72.9531C876.521 74.2552 872.68 75.2969 869.164 76.0781C868.643 76.4688 867.732 76.3385 866.43 75.6875C865.128 75.0365 863.891 74.1901 862.719 73.1484C861.547 71.9766 860.701 70.8047 860.18 69.6328C859.789 68.3307 860.245 67.1589 861.547 66.1172C865.844 66.1172 870.922 65.2708 876.781 63.5781C882.641 61.7552 888.565 59.6719 894.555 57.3281C900.674 54.9844 906.599 52.7057 912.328 50.4922C918.188 48.1484 923.331 46.5208 927.758 45.6094C932.055 45.6094 934.203 47.7578 934.203 52.0547C934.203 56.7422 933.357 61.3646 931.664 65.9219C930.102 70.349 928.083 74.7109 925.609 79.0078C923.266 83.3047 920.661 87.5365 917.797 91.7031C915.062 95.8698 912.458 100.102 909.984 104.398C907.641 108.695 905.622 113.057 903.93 117.484C902.237 121.911 901.391 126.469 901.391 131.156V133.5L972.875 118.852H974.242C976.065 118.852 977.693 119.438 979.125 120.609C980.688 121.651 981.794 122.888 982.445 124.32C983.227 125.622 983.292 126.99 982.641 128.422C981.99 129.854 980.362 130.896 977.758 131.547C977.237 131.547 976.651 131.612 976 131.742C975.479 131.872 974.242 132.133 972.289 132.523C970.466 132.784 967.732 133.24 964.086 133.891C960.44 134.411 955.297 135.258 948.656 136.43C942.146 137.602 933.812 139.164 923.656 141.117C913.63 142.94 901.26 145.219 886.547 147.953Z" fill="black"/>
<path d="M8.61719 25.8828C7.57552 23.9297 6.85938 22.237 6.46875 20.8047C6.07812 19.3724 5.88281 17.6797 5.88281 15.7266C5.88281 15.0755 5.88281 14.4245 5.88281 13.7734C6.01302 13.1224 6.20833 12.5365 6.46875 12.0156C6.85938 11.4948 7.38021 11.1042 8.03125 10.8438C8.8125 10.5833 9.78906 10.6484 10.9609 11.0391C11.7422 11.2995 12.5234 11.8203 13.3047 12.6016C14.0859 13.2526 14.8021 14.1641 15.4531 15.3359C16.2344 16.3776 16.8203 17.4193 17.2109 18.4609C17.7318 19.5026 18.1224 20.349 18.3828 21C21.3776 18.6562 24.6328 16.3125 28.1484 13.9688C31.6641 11.4948 35.375 9.34635 39.2812 7.52344C43.3177 5.57031 47.3542 4.00781 51.3906 2.83594C55.5573 1.66406 59.5286 1.07812 63.3047 1.07812C64.6068 1.07812 66.1693 1.20833 67.9922 1.46875C69.8151 1.72917 71.5078 2.1849 73.0703 2.83594C74.763 3.48698 76.1302 4.39844 77.1719 5.57031C78.3438 6.61198 78.9297 7.97917 78.9297 9.67188C79.3203 12.7969 78.9297 15.987 77.7578 19.2422C76.7161 22.3672 75.2188 25.4271 73.2656 28.4219C71.4427 31.4167 69.2943 34.3464 66.8203 37.2109C64.4766 40.0755 62.0677 42.8099 59.5938 45.4141C57.25 48.0182 55.0365 50.4271 52.9531 52.6406C51 54.8542 49.5026 56.8073 48.4609 58.5C53.7995 54.9844 59.5286 52.4453 65.6484 50.8828C71.8984 49.1901 78.1484 48.3438 84.3984 48.3438C86.3516 48.3438 88.4349 48.474 90.6484 48.7344C92.9922 48.8646 95.1406 49.3203 97.0938 50.1016C99.0469 50.8828 100.674 51.9896 101.977 53.4219C103.279 54.8542 103.93 56.8724 103.93 59.4766C103.93 62.0807 102.693 65.7266 100.219 70.4141C97.875 74.9714 94.75 80.0495 90.8438 85.6484C87.0677 91.1172 82.8359 96.7161 78.1484 102.445C73.5911 108.044 69.1641 113.188 64.8672 117.875C60.5703 122.432 56.6641 126.208 53.1484 129.203C49.763 132.068 47.3542 133.5 45.9219 133.5L40.8438 131.156C41.4948 128.682 43.1224 125.753 45.7266 122.367C48.3307 118.982 51.3906 115.466 54.9062 111.82C58.5521 108.174 62.3932 104.333 66.4297 100.297C70.5964 96.2604 74.5026 92.3542 78.1484 88.5781C81.7943 84.8021 84.9844 81.1562 87.7188 77.6406C90.4531 73.9948 92.2109 70.7396 92.9922 67.875C93.9036 64.8802 93.5781 62.4062 92.0156 60.4531C90.4531 58.3698 87.263 56.8073 82.4453 55.7656C77.3672 55.7656 72.0286 56.6771 66.4297 58.5C60.8307 60.1927 55.4922 62.6667 50.4141 65.9219C45.3359 69.1771 40.7786 73.0833 36.7422 77.6406C32.8359 82.0677 29.9714 87.0807 28.1484 92.6797C28.1484 96.3255 28.4089 99.9062 28.9297 103.422C29.5807 106.938 30.2318 110.453 30.8828 113.969C31.5339 117.354 32.1198 120.805 32.6406 124.32C33.2917 127.836 33.6172 131.352 33.6172 134.867C33.6172 137.471 33.4219 139.62 33.0312 141.312C32.6406 143.005 31.013 143.852 28.1484 143.852C27.888 143.852 27.4323 143.852 26.7812 143.852C26.2604 143.721 26 143.591 26 143.461L8.61719 25.8828ZM21.1172 38.1875C21.1172 43.0052 21.4427 48.1484 22.0938 53.6172C22.7448 58.9557 24.0469 63.9036 26 68.4609C27.9531 66.7682 30.362 64.5547 33.2266 61.8203C36.2214 58.9557 39.2812 55.8958 42.4062 52.6406C45.6615 49.3854 48.7865 45.9349 51.7812 42.2891C54.9062 38.6432 57.7057 35.1276 60.1797 31.7422C62.7839 28.3568 64.8021 25.2318 66.2344 22.3672C67.7969 19.3724 68.5781 16.8984 68.5781 14.9453C68.5781 13.3828 68.0573 12.3411 67.0156 11.8203C66.1042 11.2995 64.9974 11.0391 63.6953 11.0391C60.5703 11.0391 56.5339 11.6901 51.5859 12.9922C46.7682 14.2943 42.0807 16.1172 37.5234 18.4609C33.0964 20.8047 29.2552 23.6693 26 27.0547C22.7448 30.3099 21.1172 34.0208 21.1172 38.1875Z" stroke="black" stroke-width="2" mask="url(#path-1-outside-1_114_11)"/>
<path d="M113.5 51.8594V50.2969C113.5 48.9948 113.956 48.0833 114.867 47.5625C115.909 47.0417 117.081 46.7812 118.383 46.7812C119.424 46.7812 120.401 46.9115 121.312 47.1719C122.224 47.3021 122.94 48.0182 123.461 49.3203C123.852 51.2734 124.242 54.0078 124.633 57.5234C125.023 60.9089 125.479 64.6849 126 68.8516C126.521 73.0182 127.042 77.4453 127.562 82.1328C128.214 86.6901 128.799 91.0521 129.32 95.2188C129.971 99.2552 130.622 102.901 131.273 106.156C131.924 109.411 132.641 111.885 133.422 113.578C133.031 101.078 133.422 90.2708 134.594 81.1562C135.766 71.9115 137.979 64.4245 141.234 58.6953C144.62 52.8359 149.177 48.7995 154.906 46.5859C160.766 44.2422 168.057 43.7214 176.781 45.0234C180.818 45.0234 182.836 47.1719 182.836 51.4688C182.836 53.1615 181.729 54.3333 179.516 54.9844C177.302 55.5052 174.828 55.8958 172.094 56.1562C169.359 56.2865 166.69 56.4818 164.086 56.7422C161.482 57.0026 159.594 57.6536 158.422 58.6953C153.734 61.2995 150.414 65.3359 148.461 70.8047C146.638 76.2734 145.336 82.7188 144.555 90.1406C143.773 97.5625 143.188 105.701 142.797 114.555C142.536 123.279 141.69 132.263 140.258 141.508C140.258 142.81 139.737 143.786 138.695 144.438C137.654 145.089 136.352 145.414 134.789 145.414C133.357 145.414 131.924 145.089 130.492 144.438C129.19 143.786 128.148 142.81 127.367 141.508L113.5 51.8594Z" stroke="black" stroke-width="2" mask="url(#path-1-outside-1_114_11)"/>
<path d="M242.406 123.344C241.885 124.906 240.583 127.055 238.5 129.789C236.547 132.393 234.203 135.062 231.469 137.797C228.734 140.401 225.87 142.745 222.875 144.828C220.01 146.781 217.471 147.758 215.258 147.758C211.091 147.758 207.641 145.805 204.906 141.898C202.302 137.992 200.284 132.979 198.852 126.859C197.419 120.74 196.443 113.969 195.922 106.547C195.401 98.9948 195.076 91.638 194.945 84.4766C194.815 77.3151 194.75 70.8047 194.75 64.9453C194.75 59.0859 194.555 54.6589 194.164 51.6641C194.685 50.362 195.336 49.5807 196.117 49.3203C197.029 49.0599 198.07 48.9297 199.242 48.9297C200.284 48.9297 201.195 49.0599 201.977 49.3203C202.888 49.5807 203.669 50.362 204.32 51.6641C204.32 53.0964 204.32 55.5052 204.32 58.8906C204.451 62.276 204.646 66.1172 204.906 70.4141C205.167 74.5807 205.427 79.0078 205.688 83.6953C205.948 88.2526 206.143 92.6146 206.273 96.7812C206.534 100.948 206.729 104.724 206.859 108.109C207.12 111.365 207.315 113.773 207.445 115.336C207.576 116.247 207.706 117.745 207.836 119.828C208.096 121.911 208.422 124.125 208.812 126.469C209.333 128.682 209.919 130.701 210.57 132.523C211.352 134.346 212.328 135.323 213.5 135.453C215.453 135.453 217.406 134.607 219.359 132.914C221.443 131.221 223.461 129.073 225.414 126.469C227.367 123.865 229.19 121 230.883 117.875C232.576 114.75 234.073 111.755 235.375 108.891C236.807 105.896 237.849 103.227 238.5 100.883C239.281 98.5391 239.737 96.8464 239.867 95.8047C240.128 93.5911 240.388 90.4661 240.648 86.4297C240.909 82.263 241.104 77.8359 241.234 73.1484C241.365 68.4609 241.43 64.0339 241.43 59.8672C241.56 55.7005 241.625 52.5104 241.625 50.2969L252.367 50.8828C252.497 61.4297 252.432 71 252.172 79.5938C251.911 88.0573 251.846 96.0651 251.977 103.617C252.107 111.039 252.693 118.266 253.734 125.297C254.776 132.328 256.664 139.62 259.398 147.172C259.008 147.562 258.227 148.083 257.055 148.734C255.883 149.516 255.036 149.906 254.516 149.906C251.26 149.906 249.047 148.799 247.875 146.586C246.833 144.503 246.117 142.029 245.727 139.164C245.466 136.169 245.206 133.24 244.945 130.375C244.815 127.38 243.969 125.036 242.406 123.344Z" stroke="black" stroke-width="2" mask="url(#path-1-outside-1_114_11)"/>
<path d="M278.539 143.461C277.107 125.883 275.805 108.305 274.633 90.7266C273.591 73.0182 272.419 54.6589 271.117 35.6484C271.117 32.5234 272.81 30.9609 276.195 30.9609H277.758C278.148 30.9609 278.604 31.4818 279.125 32.5234C279.646 33.5651 280.167 35.5182 280.688 38.3828C281.339 41.1172 281.99 45.349 282.641 51.0781C283.422 56.6771 284.333 64.0339 285.375 73.1484C286.417 82.263 287.589 93.6562 288.891 107.328C291.625 98.474 293.773 89.8802 295.336 81.5469C296.898 73.2135 298.917 65.6615 301.391 58.8906C303.865 51.9896 307.315 45.9349 311.742 40.7266C316.299 35.5182 322.81 31.6771 331.273 29.2031C335.961 29.9844 339.737 32.849 342.602 37.7969C345.466 42.6146 347.745 48.6042 349.438 55.7656C351.13 62.9271 352.302 70.7396 352.953 79.2031C353.604 87.5365 353.995 95.5443 354.125 103.227C354.255 110.909 354.32 117.81 354.32 123.93C354.32 129.919 354.451 134.216 354.711 136.82C354.32 137.862 353.734 138.773 352.953 139.555C352.172 140.336 351.26 140.922 350.219 141.312C349.307 141.573 348.396 141.638 347.484 141.508C346.573 141.247 345.727 140.531 344.945 139.359C344.945 137.927 344.815 134.997 344.555 130.57C344.294 126.143 343.969 121 343.578 115.141C343.188 109.151 342.732 102.836 342.211 96.1953C341.82 89.4245 341.43 83.1094 341.039 77.25C340.779 71.2604 340.518 66.0521 340.258 61.625C339.997 57.1979 339.802 54.2682 339.672 52.8359C336.938 48.0182 334.203 45.2839 331.469 44.6328C328.865 43.9818 326.195 44.8281 323.461 47.1719C320.857 49.5156 318.318 53.0964 315.844 57.9141C313.37 62.7318 311.026 68.2005 308.812 74.3203C306.599 80.3099 304.516 86.625 302.562 93.2656C300.609 99.9062 298.917 106.352 297.484 112.602C296.052 118.721 294.815 124.32 293.773 129.398C292.862 134.346 292.276 138.188 292.016 140.922C291.625 141.833 290.779 142.745 289.477 143.656C288.305 144.438 287.003 145.023 285.57 145.414C284.268 145.805 282.901 145.935 281.469 145.805C280.167 145.544 279.19 144.763 278.539 143.461Z" stroke="black" stroke-width="2" mask="url(#path-1-outside-1_114_11)"/>
<path d="M366.82 119.242C365.909 113.253 365.453 107.458 365.453 101.859C365.453 96.1302 365.779 90.3359 366.43 84.4766C367.211 78.6172 368.253 72.5625 369.555 66.3125C370.987 59.9323 372.615 53.0964 374.438 45.8047C374.438 44.3724 374.828 43.0703 375.609 41.8984C376.391 40.5964 377.432 39.5547 378.734 38.7734C380.036 37.862 381.404 37.1458 382.836 36.625C384.268 36.1042 385.635 35.8438 386.938 35.8438C389.802 35.8438 392.406 36.7552 394.75 38.5781C397.094 40.401 399.177 42.6146 401 45.2188C402.953 47.8229 404.581 50.6224 405.883 53.6172C407.315 56.4818 408.487 58.9557 409.398 61.0391C410.44 65.5964 411.156 70.8047 411.547 76.6641C412.068 82.3932 412.133 88.2526 411.742 94.2422C411.352 100.232 410.44 106.156 409.008 112.016C407.576 117.745 405.557 123.018 402.953 127.836C400.349 132.654 396.964 136.69 392.797 139.945C388.76 143.201 383.943 145.219 378.344 146C375.349 146 373.07 145.023 371.508 143.07C369.945 140.987 368.773 138.513 367.992 135.648C367.341 132.654 366.951 129.659 366.82 126.664C366.82 123.669 366.82 121.195 366.82 119.242ZM376.781 118.656C376.781 119.958 376.781 121.195 376.781 122.367C376.911 123.539 377.042 124.711 377.172 125.883C377.432 126.924 377.693 128.096 377.953 129.398C378.344 130.57 378.799 131.938 379.32 133.5H380.492C383.617 133.5 386.286 132.458 388.5 130.375C390.714 128.292 392.602 125.622 394.164 122.367C395.727 118.982 397.029 115.271 398.07 111.234C399.112 107.068 399.893 103.031 400.414 99.125C401.065 95.0885 401.456 91.3776 401.586 87.9922C401.846 84.4766 401.977 81.6771 401.977 79.5938V75.6875C401.977 73.9948 401.911 72.1068 401.781 70.0234C401.651 67.8099 401.391 65.5964 401 63.3828C400.74 61.0391 400.284 58.9557 399.633 57.1328C398.982 55.1797 398.135 53.6172 397.094 52.4453C396.052 51.2734 394.685 50.6875 392.992 50.6875C390.128 49.776 387.654 49.9714 385.57 51.2734C383.617 52.5755 381.99 54.7891 380.688 57.9141C379.516 60.9089 378.604 64.6198 377.953 69.0469C377.302 73.474 376.911 78.3568 376.781 83.6953C376.651 89.0339 376.586 94.6979 376.586 100.688C376.716 106.677 376.781 112.667 376.781 118.656Z" stroke="black" stroke-width="2" mask="url(#path-1-outside-1_114_11)"/>
<path d="M514.867 138.383C514.607 121.846 514.281 107.719 513.891 96C513.63 84.151 513.37 74.1901 513.109 66.1172C512.849 58.0443 512.523 51.6641 512.133 46.9766C511.872 42.1589 511.677 38.3177 511.547 35.4531C511.417 32.5885 511.286 30.5703 511.156 29.3984C511.026 28.0964 510.961 26.8594 510.961 25.6875C510.961 23.474 511.612 22.1068 512.914 21.5859C514.216 20.9349 515.844 20.6094 517.797 20.6094C520.01 20.6094 521.703 21.0651 522.875 21.9766C524.177 22.7578 524.828 24.9062 524.828 28.4219L528.539 133.5C528.669 133.5 529.32 133.37 530.492 133.109C531.664 132.849 533.031 132.458 534.594 131.938C536.156 131.417 537.784 130.896 539.477 130.375C541.169 129.724 542.536 129.138 543.578 128.617C545.141 127.966 547.484 126.924 550.609 125.492C553.734 124.06 557.25 122.432 561.156 120.609C565.062 118.786 569.164 116.898 573.461 114.945C577.888 112.862 582.055 110.974 585.961 109.281C589.997 107.458 593.513 105.831 596.508 104.398C599.633 102.836 601.977 101.729 603.539 101.078H605.883C606.664 101.078 607.445 101.143 608.227 101.273C609.008 101.404 609.659 101.729 610.18 102.25C610.701 102.771 611.026 103.552 611.156 104.594C611.156 105.896 610.896 107.003 610.375 107.914C609.984 108.826 609.398 109.867 608.617 111.039C600.935 112.471 593.383 115.076 585.961 118.852C578.669 122.628 571.378 126.534 564.086 130.57C556.924 134.607 549.633 138.188 542.211 141.312C534.919 144.438 527.432 146 519.75 146C516.495 146 514.867 143.461 514.867 138.383Z" stroke="black" stroke-width="2" mask="url(#path-1-outside-1_114_11)"/>
<path d="M617.602 119.242C616.69 113.253 616.234 107.458 616.234 101.859C616.234 96.1302 616.56 90.3359 617.211 84.4766C617.992 78.6172 619.034 72.5625 620.336 66.3125C621.768 59.9323 623.396 53.0964 625.219 45.8047C625.219 44.3724 625.609 43.0703 626.391 41.8984C627.172 40.5964 628.214 39.5547 629.516 38.7734C630.818 37.862 632.185 37.1458 633.617 36.625C635.049 36.1042 636.417 35.8438 637.719 35.8438C640.583 35.8438 643.188 36.7552 645.531 38.5781C647.875 40.401 649.958 42.6146 651.781 45.2188C653.734 47.8229 655.362 50.6224 656.664 53.6172C658.096 56.4818 659.268 58.9557 660.18 61.0391C661.221 65.5964 661.938 70.8047 662.328 76.6641C662.849 82.3932 662.914 88.2526 662.523 94.2422C662.133 100.232 661.221 106.156 659.789 112.016C658.357 117.745 656.339 123.018 653.734 127.836C651.13 132.654 647.745 136.69 643.578 139.945C639.542 143.201 634.724 145.219 629.125 146C626.13 146 623.852 145.023 622.289 143.07C620.727 140.987 619.555 138.513 618.773 135.648C618.122 132.654 617.732 129.659 617.602 126.664C617.602 123.669 617.602 121.195 617.602 119.242ZM627.562 118.656C627.562 119.958 627.562 121.195 627.562 122.367C627.693 123.539 627.823 124.711 627.953 125.883C628.214 126.924 628.474 128.096 628.734 129.398C629.125 130.57 629.581 131.938 630.102 133.5H631.273C634.398 133.5 637.068 132.458 639.281 130.375C641.495 128.292 643.383 125.622 644.945 122.367C646.508 118.982 647.81 115.271 648.852 111.234C649.893 107.068 650.674 103.031 651.195 99.125C651.846 95.0885 652.237 91.3776 652.367 87.9922C652.628 84.4766 652.758 81.6771 652.758 79.5938V75.6875C652.758 73.9948 652.693 72.1068 652.562 70.0234C652.432 67.8099 652.172 65.5964 651.781 63.3828C651.521 61.0391 651.065 58.9557 650.414 57.1328C649.763 55.1797 648.917 53.6172 647.875 52.4453C646.833 51.2734 645.466 50.6875 643.773 50.6875C640.909 49.776 638.435 49.9714 636.352 51.2734C634.398 52.5755 632.771 54.7891 631.469 57.9141C630.297 60.9089 629.385 64.6198 628.734 69.0469C628.083 73.474 627.693 78.3568 627.562 83.6953C627.432 89.0339 627.367 94.6979 627.367 100.688C627.497 106.677 627.562 112.667 627.562 118.656ZM637.328 28.6172C633.812 27.8359 631.859 26.4688 631.469 24.5156C631.208 22.5625 631.924 20.349 633.617 17.875C635.31 15.2708 637.654 12.5365 640.648 9.67188C643.643 6.67708 646.638 3.8125 649.633 1.07812C651.846 1.07812 653.344 1.66406 654.125 2.83594C654.906 4.00781 655.297 5.375 655.297 6.9375V8.30469C655.036 9.86719 654.255 11.5599 652.953 13.3828C651.651 15.2057 650.089 17.0286 648.266 18.8516C646.443 20.6745 644.49 22.4323 642.406 24.125C640.453 25.8177 638.76 27.3151 637.328 28.6172Z" stroke="black" stroke-width="2" mask="url(#path-1-outside-1_114_11)"/>
<path d="M671.703 197.367C673.135 183.695 673.917 170.674 674.047 158.305C674.307 146.065 674.242 133.956 673.852 121.977C673.591 109.997 673.135 97.888 672.484 85.6484C671.833 73.4089 671.443 60.4531 671.312 46.7812C671.703 44.9583 672.159 43.5911 672.68 42.6797C673.331 41.638 674.958 41.3776 677.562 41.8984C680.297 42.5495 681.924 44.112 682.445 46.5859C682.966 48.9297 683.096 51.599 682.836 54.5938C682.576 57.5885 682.185 60.5833 681.664 63.5781C681.143 66.5729 681.143 68.9818 681.664 70.8047C685.831 67.8099 690.258 64.6849 694.945 61.4297C699.633 58.1745 704.516 55.3099 709.594 52.8359C714.672 50.2318 719.945 48.3438 725.414 47.1719C730.883 45.8698 736.352 45.8047 741.82 46.9766C748.591 48.5391 753.279 50.8828 755.883 54.0078C758.617 57.0026 759.659 60.5182 759.008 64.5547C758.487 68.4609 756.664 72.8229 753.539 77.6406C750.414 82.3281 746.573 87.0807 742.016 91.8984C737.458 96.7161 732.38 101.469 726.781 106.156C721.182 110.844 715.714 115.206 710.375 119.242C705.036 123.148 700.023 126.599 695.336 129.594C690.779 132.589 687.133 134.802 684.398 136.234C684.268 137.797 684.073 140.271 683.812 143.656C683.682 146.911 683.487 150.622 683.227 154.789C683.096 158.956 682.901 163.318 682.641 167.875C682.51 172.432 682.315 176.794 682.055 180.961C681.924 185.128 681.729 188.839 681.469 192.094C681.339 195.349 681.273 197.758 681.273 199.32C681.013 199.451 680.557 199.581 679.906 199.711C679.255 199.841 678.474 199.906 677.562 199.906C676.651 200.036 675.805 200.102 675.023 200.102C674.242 200.232 673.721 200.232 673.461 200.102C673.07 200.102 672.68 199.711 672.289 198.93C671.898 198.279 671.703 197.758 671.703 197.367ZM682.641 90.3359C682.25 92.1589 682.12 94.4375 682.25 97.1719C682.51 99.776 682.771 102.576 683.031 105.57C683.422 108.435 683.812 111.234 684.203 113.969C684.594 116.703 684.854 119.047 684.984 121C689.932 117.224 695.661 113.383 702.172 109.477C708.812 105.57 715.193 101.339 721.312 96.7812C727.562 92.224 733.096 87.1458 737.914 81.5469C742.732 75.9479 745.922 69.6328 747.484 62.6016C748.005 59.8672 747.745 58.0443 746.703 57.1328C745.792 56.0911 744.164 55.375 741.82 54.9844C736.872 53.9427 731.208 54.3333 724.828 56.1562C718.448 57.849 712.263 60.388 706.273 63.7734C700.414 67.1589 695.271 71.1953 690.844 75.8828C686.417 80.5703 683.682 85.388 682.641 90.3359Z" stroke="black" stroke-width="2" mask="url(#path-1-outside-1_114_11)"/>
<path d="M773.266 103.812C772.615 103.943 771.638 104.138 770.336 104.398C769.034 104.659 767.667 104.724 766.234 104.594C764.802 104.464 763.565 104.073 762.523 103.422C761.352 102.771 760.766 101.664 760.766 100.102C760.766 99.1901 760.961 98.5391 761.352 98.1484C761.742 97.7578 762.393 97.1719 763.305 96.3906C766.169 94.0469 768.578 91.0521 770.531 87.4062C772.615 83.6302 774.503 79.6589 776.195 75.4922C777.888 71.1953 779.646 66.9635 781.469 62.7969C783.422 58.5 785.635 54.6589 788.109 51.2734C790.583 47.888 793.643 45.1536 797.289 43.0703C800.935 40.987 805.427 40.0104 810.766 40.1406C812.979 40.1406 815.453 40.6615 818.188 41.7031C820.922 42.7448 823.461 44.1771 825.805 46C828.148 47.6927 830.102 49.776 831.664 52.25C833.227 54.724 834.008 57.4583 834.008 60.4531C834.659 61.4948 834.008 62.9922 832.055 64.9453C830.232 66.8984 827.693 69.0469 824.438 71.3906C821.182 73.6042 817.471 75.9479 813.305 78.4219C809.268 80.7656 805.362 82.9792 801.586 85.0625C797.81 87.1458 794.49 88.9688 791.625 90.5312C788.76 92.0938 786.872 93.2656 785.961 94.0469C785.31 95.349 784.789 96.8464 784.398 98.5391C784.008 100.232 783.682 101.859 783.422 103.422C783.292 104.854 783.161 106.221 783.031 107.523C783.031 108.695 783.031 109.607 783.031 110.258C783.031 112.732 782.901 115.466 782.641 118.461C782.51 121.456 782.641 124.32 783.031 127.055C783.552 129.659 784.659 131.872 786.352 133.695C788.044 135.388 790.909 136.234 794.945 136.234C799.242 136.234 803.279 135.193 807.055 133.109C810.831 130.896 814.346 128.227 817.602 125.102C820.857 121.977 823.786 118.591 826.391 114.945C829.125 111.299 831.534 107.914 833.617 104.789C835.831 101.534 837.784 98.8646 839.477 96.7812C841.169 94.6979 842.602 93.6562 843.773 93.6562C845.076 93.6562 846.443 93.9167 847.875 94.4375C849.438 94.8281 850.219 95.8698 850.219 97.5625C850.219 99.9062 849.242 102.706 847.289 105.961C845.466 109.216 842.992 112.667 839.867 116.312C836.872 119.958 833.357 123.604 829.32 127.25C825.414 130.766 821.443 133.956 817.406 136.82C813.37 139.555 809.398 141.833 805.492 143.656C801.586 145.349 798.135 146.195 795.141 146.195C789.281 146.195 784.854 144.763 781.859 141.898C778.865 139.034 776.716 135.453 775.414 131.156C774.242 126.859 773.591 122.302 773.461 117.484C773.461 112.536 773.396 107.979 773.266 103.812ZM809.203 51.0781C806.99 51.0781 804.646 52.1849 802.172 54.3984C799.698 56.4818 797.354 59.0859 795.141 62.2109C793.057 65.2057 791.299 68.3307 789.867 71.5859C788.565 74.7109 787.914 77.3151 787.914 79.3984C789.867 79.3984 792.667 78.6823 796.312 77.25C800.089 75.6875 803.799 73.7995 807.445 71.5859C811.091 69.3724 814.281 67.0286 817.016 64.5547C819.75 62.0807 821.117 59.737 821.117 57.5234C821.117 56.3516 820.661 55.375 819.75 54.5938C818.839 53.8125 817.732 53.1615 816.43 52.6406C815.258 52.1198 814.021 51.7292 812.719 51.4688C811.417 51.2083 810.245 51.0781 809.203 51.0781Z" stroke="black" stroke-width="2" mask="url(#path-1-outside-1_114_11)"/>
<path d="M886.547 147.953C885.896 144.958 886.091 141.117 887.133 136.43C888.305 131.612 889.932 126.404 892.016 120.805C894.099 115.206 896.508 109.411 899.242 103.422C902.107 97.4323 904.841 91.7682 907.445 86.4297C910.18 80.9609 912.589 76.013 914.672 71.5859C916.755 67.1589 918.188 63.6432 918.969 61.0391C918.969 60.9089 918.969 60.7786 918.969 60.6484C919.099 60.388 919.164 60.1276 919.164 59.8672C919.164 59.6068 919.099 59.3464 918.969 59.0859C918.969 58.8255 918.969 58.6302 918.969 58.5C915.323 59.9323 911.286 61.5599 906.859 63.3828C902.562 65.0755 898.201 66.7682 893.773 68.4609C889.346 70.0234 884.984 71.5208 880.688 72.9531C876.521 74.2552 872.68 75.2969 869.164 76.0781C868.643 76.4688 867.732 76.3385 866.43 75.6875C865.128 75.0365 863.891 74.1901 862.719 73.1484C861.547 71.9766 860.701 70.8047 860.18 69.6328C859.789 68.3307 860.245 67.1589 861.547 66.1172C865.844 66.1172 870.922 65.2708 876.781 63.5781C882.641 61.7552 888.565 59.6719 894.555 57.3281C900.674 54.9844 906.599 52.7057 912.328 50.4922C918.188 48.1484 923.331 46.5208 927.758 45.6094C932.055 45.6094 934.203 47.7578 934.203 52.0547C934.203 56.7422 933.357 61.3646 931.664 65.9219C930.102 70.349 928.083 74.7109 925.609 79.0078C923.266 83.3047 920.661 87.5365 917.797 91.7031C915.062 95.8698 912.458 100.102 909.984 104.398C907.641 108.695 905.622 113.057 903.93 117.484C902.237 121.911 901.391 126.469 901.391 131.156V133.5L972.875 118.852H974.242C976.065 118.852 977.693 119.438 979.125 120.609C980.688 121.651 981.794 122.888 982.445 124.32C983.227 125.622 983.292 126.99 982.641 128.422C981.99 129.854 980.362 130.896 977.758 131.547C977.237 131.547 976.651 131.612 976 131.742C975.479 131.872 974.242 132.133 972.289 132.523C970.466 132.784 967.732 133.24 964.086 133.891C960.44 134.411 955.297 135.258 948.656 136.43C942.146 137.602 933.812 139.164 923.656 141.117C913.63 142.94 901.26 145.219 886.547 147.953Z" stroke="black" stroke-width="2" mask="url(#path-1-outside-1_114_11)"/>
</g>
<defs>
<filter id="filter0_d_114_11" x="0.882812" y="0.078125" width="987.202" height="209.121" filterUnits="userSpaceOnUse" color-interpolation-filters="sRGB">
<feFlood flood-opacity="0" result="BackgroundImageFix"/>
<feColorMatrix in="SourceAlpha" type="matrix" values="0 0 0 0 0 0 0 0 0 0 0 0 0 0 0 0 0 0 127 0" result="hardAlpha"/>
<feOffset dy="4"/>
<feGaussianBlur stdDeviation="2"/>
<feComposite in2="hardAlpha" operator="out"/>
<feColorMatrix type="matrix" values="0 0 0 0 0 0 0 0 0 0 0 0 0 0 0 0 0 0 0.25 0"/>
<feBlend mode="normal" in2="BackgroundImageFix" result="effect1_dropShadow_114_11"/>
<feBlend mode="normal" in="SourceGraphic" in2="effect1_dropShadow_114_11" result="shape"/>
</filter>
</defs>
</svg>
