<svg width="187" height="66" viewBox="0 0 187 66" fill="none" xmlns="http://www.w3.org/2000/svg">
<path d="M51.3623 53.2176C51.3623 51.3433 52.8066 50.0662 54.6142 50.0662C55.8591 50.0662 56.639 50.6414 57.1328 51.3545L56.3273 51.7642C56.1434 51.4893 55.89 51.2638 55.5908 51.1087C55.2916 50.9536 54.9563 50.8741 54.6164 50.8775C53.3332 50.8775 52.3439 51.8459 52.3439 53.2176C52.3439 54.5797 53.3332 55.5578 54.6164 55.5578C54.9561 55.5613 55.2912 55.4821 55.5904 55.3274C55.8896 55.1727 56.1431 54.9476 56.3273 54.6732L57.135 55.0845C56.6318 55.797 55.8613 56.3734 54.6164 56.3734C52.8077 56.3713 51.3623 55.0914 51.3623 53.2176Z" fill="white"/>
<path d="M60.0791 51.7354C61.4572 51.7354 62.3127 52.7684 62.3127 54.1214V54.3222H58.6809C58.7481 55.07 59.3186 55.6934 60.2407 55.6934C60.7257 55.6934 61.2578 55.5107 61.6 55.1726L61.9988 55.7121C61.5428 56.1394 60.8962 56.3702 60.1546 56.3702C58.7859 56.3702 57.7782 55.4375 57.7782 54.0482C57.7782 52.7695 58.7381 51.7354 60.0791 51.7354ZM58.672 53.7283H61.4761C61.4572 53.1407 61.0484 52.4116 60.0791 52.4116C59.1569 52.4127 58.7192 53.1241 58.672 53.7293V53.7283Z" fill="white"/>
<path d="M66.4852 53.4366C66.4852 52.7059 66.0963 52.4677 65.5058 52.4677C64.9731 52.4677 64.4882 52.7785 64.241 53.1086V56.2601H63.3855V51.8459H64.241V52.4677C64.4428 52.2421 64.6921 52.0602 64.9723 51.934C65.2526 51.8078 65.5575 51.7401 65.8669 51.7354C66.8368 51.7354 67.3401 52.2289 67.3401 53.1615V56.2596H66.4852V53.4366Z" fill="white"/>
<path d="M68.8703 55.2831V52.568H68.1093V51.8458H68.8703V50.6392H69.7252V51.8458H70.659V52.568H69.7269V55.1004C69.7269 55.4113 69.8791 55.6399 70.1713 55.6399C70.3443 55.643 70.5116 55.5806 70.6373 55.4663L70.8556 56.0875C70.6751 56.2526 70.4112 56.3711 69.9618 56.3711C69.2402 56.3711 68.8703 55.978 68.8703 55.2831Z" fill="white"/>
<path d="M71.6068 51.846H72.4623V52.5227C72.8139 52.0842 73.3561 51.7461 73.9621 51.7461V52.5778C73.8654 52.5581 73.7666 52.5488 73.6677 52.55C73.24 52.55 72.6601 52.8609 72.4601 53.191V56.2623H71.6046L71.6068 51.846Z" fill="white"/>
<path d="M74.5342 54.0492C74.5342 52.7785 75.428 51.7363 76.8545 51.7363C78.2899 51.7363 79.1737 52.7785 79.1737 54.0492C79.1737 55.3311 78.2899 56.3711 76.8545 56.3711C75.428 56.3711 74.5342 55.329 74.5342 54.0492ZM78.2799 54.0492C78.2799 53.2175 77.7766 52.4676 76.8545 52.4676C75.9413 52.4676 75.428 53.2154 75.428 54.0492C75.428 54.8899 75.9413 55.6399 76.8545 55.6399C77.7766 55.6399 78.2799 54.8899 78.2799 54.0492Z" fill="white"/>
<path d="M82.88 54.6982C83.131 54.9687 83.4386 55.1851 83.7827 55.3332C84.1268 55.4813 84.4995 55.5578 84.8765 55.5577C85.9036 55.5577 86.2652 55.0545 86.2652 54.616C86.2652 53.975 85.5431 53.7934 84.7348 53.5926C83.7177 53.3362 82.5389 53.0531 82.5389 51.8096C82.5389 50.8043 83.4611 50.0725 84.782 50.0725C85.7614 50.0725 86.5318 50.3743 87.0923 50.9229L86.5413 51.5991C86.0563 51.1056 85.3909 50.886 84.7082 50.886C84.0049 50.886 83.5199 51.2338 83.5199 51.746C83.5199 52.294 84.2043 52.4676 84.9931 52.6599C86.0297 52.927 87.2368 53.2357 87.2368 54.5337C87.2368 55.4845 86.5524 56.3712 84.8409 56.3712C83.7099 56.3712 82.8828 55.9781 82.3412 55.4017L82.88 54.6982Z" fill="white"/>
<path d="M88.1827 50.5849C88.1838 50.4445 88.2422 50.3101 88.3454 50.2109C88.4487 50.1116 88.5884 50.0554 88.7344 50.0544C88.8806 50.0546 89.0207 50.1105 89.124 50.21C89.2274 50.3094 89.2854 50.4443 89.2854 50.5849C89.2853 50.654 89.2709 50.7224 89.243 50.7861C89.2151 50.8498 89.1744 50.9076 89.1231 50.956C89.0719 51.0045 89.0111 51.0427 88.9444 51.0683C88.8776 51.094 88.8062 51.1067 88.7344 51.1056C88.5896 51.1062 88.4505 51.0518 88.3472 50.9543C88.2439 50.8568 88.1848 50.724 88.1827 50.5849ZM88.3161 51.846H89.1715V56.2612H88.3161V51.846Z" fill="white"/>
<path d="M93.6294 53.4366C93.6294 52.7059 93.2406 52.4677 92.6501 52.4677C92.1179 52.4677 91.633 52.7785 91.3852 53.1086V56.2601H90.5303V51.8459H91.3852V52.4677C91.5871 52.2422 91.8364 52.0604 92.1166 51.9341C92.3969 51.8079 92.7017 51.7402 93.0112 51.7354C93.9811 51.7354 94.4849 52.2289 94.4849 53.1615V56.2596H93.6294V53.4366Z" fill="white"/>
<path d="M96.2119 56.7915C96.5925 57.2119 97.058 57.3764 97.6857 57.3764C98.3984 57.3764 99.1116 57.0474 99.1116 56.1147V55.5395C98.76 55.978 98.2178 56.298 97.5996 56.298C96.4119 56.298 95.5559 55.4567 95.5559 54.0129C95.5559 52.5958 96.4119 51.7363 97.5996 51.7363C98.1989 51.7363 98.7411 52.0109 99.1116 52.4841V51.8432H99.9671V56.0848C99.9671 57.6024 98.8167 58.0505 97.6857 58.0505C96.9158 58.0505 96.3525 57.8951 95.8031 57.3919L96.2119 56.7915ZM99.1116 53.1166C98.8739 52.7598 98.3511 52.4676 97.8379 52.4676C96.9819 52.4676 96.4491 53.1086 96.4491 54.0129C96.4491 54.9268 96.9813 55.5667 97.8379 55.5667C98.3511 55.5667 98.8739 55.2649 99.1116 54.9081V53.1166Z" fill="white"/>
<path d="M104.427 55.6582C104.074 56.0235 103.494 56.3713 102.791 56.3713C101.812 56.3713 101.327 55.8959 101.327 54.9632V51.8459H102.182V54.6892C102.182 55.4205 102.563 55.64 103.152 55.64C103.685 55.64 104.17 55.3473 104.427 55.0183V51.8459H105.281V56.2612H104.427V55.6582Z" fill="white"/>
<path d="M106.64 50.1643H107.495V56.2611H106.64V50.1643Z" fill="white"/>
<path d="M111.687 55.7767C111.326 56.1608 110.803 56.3712 110.188 56.3712C109.427 56.3712 108.59 55.8777 108.59 54.9082C108.59 53.9029 109.417 53.466 110.188 53.466C110.805 53.466 111.338 53.6577 111.687 54.0535V53.318C111.687 52.7694 111.221 52.4404 110.566 52.4404C110.043 52.4404 109.596 52.6327 109.187 53.028L108.817 52.4607C109.33 51.9762 109.957 51.7385 110.699 51.7385C111.699 51.7385 112.543 52.1594 112.543 53.2833V56.2633H111.687V55.7767ZM111.687 54.5428C111.431 54.2138 110.984 54.0402 110.509 54.0402C109.891 54.0402 109.453 54.3965 109.453 54.9178C109.453 55.4391 109.891 55.7949 110.509 55.7949C110.984 55.7949 111.431 55.6213 111.687 55.2928V54.5428Z" fill="white"/>
<path d="M113.911 51.846H114.765V52.5227C115.118 52.0842 115.659 51.7461 116.265 51.7461V52.5778C116.168 52.5581 116.069 52.5488 115.97 52.55C115.543 52.55 114.963 52.8609 114.763 53.191V56.2623H113.908L113.911 51.846Z" fill="white"/>
<path d="M122.846 55.6308C122.672 55.8569 122.446 56.0413 122.186 56.1697C121.926 56.2981 121.638 56.367 121.346 56.3711C120.148 56.3711 119.29 55.5026 119.29 54.0583C119.29 52.6412 120.146 51.7363 121.346 51.7363C121.935 51.7363 122.477 52.0109 122.846 52.4841V50.1643H123.701V56.2611H122.846V55.6308ZM122.846 53.1166C122.608 52.7597 122.095 52.4676 121.572 52.4676C120.716 52.4676 120.183 53.1347 120.183 54.0583C120.183 54.9727 120.716 55.6399 121.572 55.6399C122.095 55.6399 122.608 55.3562 122.846 54.9989V53.1166Z" fill="white"/>
<path d="M127.085 51.7354C128.463 51.7354 129.318 52.7684 129.318 54.1214V54.3222H125.687C125.754 55.07 126.324 55.6934 127.246 55.6934C127.731 55.6934 128.264 55.5107 128.605 55.1726L129.005 55.7121C128.549 56.1394 127.902 56.3702 127.16 56.3702C125.792 56.3702 124.784 55.4375 124.784 54.0482C124.784 52.7695 125.744 51.7354 127.085 51.7354ZM125.678 53.7283H128.482C128.463 53.1407 128.054 52.4116 127.085 52.4116C126.163 52.4127 125.725 53.1241 125.678 53.7293V53.7283Z" fill="white"/>
<path d="M132.863 50.1643H133.814V56.2611H132.863V50.1643Z" fill="white"/>
<path d="M138.31 53.4366C138.31 52.7059 137.921 52.4677 137.33 52.4677C136.798 52.4677 136.313 52.7785 136.066 53.1086V56.2601H135.211V51.8459H136.066V52.4677C136.267 52.2422 136.517 52.0603 136.797 51.9341C137.077 51.8079 137.382 51.7401 137.692 51.7354C138.661 51.7354 139.165 52.2289 139.165 53.1615V56.2596H138.31V53.4366Z" fill="white"/>
<path d="M139.848 51.8459H140.763L142.198 55.311L143.633 51.8459H144.556L142.663 56.2612H141.741L139.848 51.8459Z" fill="white"/>
<path d="M147.262 51.7354C148.64 51.7354 149.496 52.7684 149.496 54.1214V54.3222H145.864C145.931 55.07 146.502 55.6934 147.424 55.6934C147.909 55.6934 148.441 55.5107 148.783 55.1726L149.182 55.7121C148.726 56.1394 148.079 56.3702 147.338 56.3702C145.969 56.3702 144.961 55.4375 144.961 54.0482C144.962 52.7695 145.922 51.7354 147.262 51.7354ZM145.855 53.7283H148.66C148.64 53.1407 148.231 52.4116 147.262 52.4116C146.34 52.4127 145.903 53.1241 145.856 53.7293L145.855 53.7283Z" fill="white"/>
<path d="M150.579 55.0822C150.893 55.4113 151.501 55.7131 152.119 55.7131C152.766 55.7131 153.108 55.4567 153.108 55.0822C153.108 54.6432 152.585 54.4973 151.997 54.3692C151.219 54.1956 150.305 53.9952 150.305 53.0439C150.305 52.3394 150.932 51.7363 152.054 51.7363C152.843 51.7363 153.414 52.0109 153.803 52.3672L153.423 52.943C153.157 52.6326 152.645 52.404 152.063 52.404C151.482 52.404 151.122 52.623 151.122 52.9798C151.122 53.3633 151.617 53.4915 152.187 53.6208C152.985 53.7944 153.936 54.0043 153.936 55.0192C153.936 55.7777 153.29 56.3722 152.083 56.3722C151.313 56.3722 150.638 56.1436 150.172 55.6864L150.579 55.0822Z" fill="white"/>
<path d="M155.189 55.2831V52.568H154.428V51.8458H155.189V50.6392H156.044V51.8458H156.976V52.568H156.044V55.1004C156.044 55.4113 156.197 55.6399 156.489 55.6399C156.662 55.643 156.829 55.5806 156.955 55.4663L157.173 56.0875C156.993 56.2526 156.729 56.3711 156.279 56.3711C155.559 56.3711 155.189 55.978 155.189 55.2831Z" fill="white"/>
<path d="M157.793 50.5849C157.794 50.4445 157.852 50.3101 157.955 50.2109C158.059 50.1116 158.198 50.0554 158.344 50.0544C158.49 50.0546 158.631 50.1105 158.734 50.21C158.837 50.3094 158.896 50.4442 158.896 50.5849C158.896 50.654 158.881 50.7224 158.853 50.7861C158.825 50.8499 158.784 50.9076 158.733 50.9561C158.682 51.0045 158.621 51.0427 158.554 51.0684C158.487 51.094 158.416 51.1067 158.344 51.1056C158.199 51.1062 158.06 51.0518 157.957 50.9543C157.854 50.8568 157.795 50.724 157.793 50.5849ZM157.926 51.846H158.781V56.2612H157.928L157.926 51.846Z" fill="white"/>
<path d="M160.511 56.7915C160.891 57.2119 161.357 57.3764 161.984 57.3764C162.697 57.3764 163.411 57.0474 163.411 56.1147V55.5395C163.059 55.978 162.517 56.298 161.899 56.298C160.711 56.298 159.855 55.4567 159.855 54.0129C159.855 52.5958 160.711 51.7363 161.899 51.7363C162.498 51.7363 163.04 52.0109 163.411 52.4841V51.8432H164.266V56.0848C164.266 57.6024 163.115 58.0505 161.984 58.0505C161.214 58.0505 160.651 57.8951 160.102 57.3919L160.511 56.7915ZM163.411 53.1166C163.173 52.7598 162.65 52.4676 162.137 52.4676C161.281 52.4676 160.748 53.1086 160.748 54.0129C160.748 54.9268 161.281 55.5667 162.137 55.5667C162.65 55.5667 163.173 55.2649 163.411 54.9081V53.1166Z" fill="white"/>
<path d="M168.457 55.7767C168.096 56.1608 167.573 56.3712 166.957 56.3712C166.196 56.3712 165.359 55.8777 165.359 54.9082C165.359 53.9029 166.187 53.466 166.957 53.466C167.575 53.466 168.107 53.6577 168.457 54.0535V53.318C168.457 52.7694 167.991 52.4404 167.335 52.4404C166.812 52.4404 166.366 52.6327 165.957 53.028L165.586 52.4607C166.099 51.9762 166.727 51.7385 167.469 51.7385C168.469 51.7385 169.313 52.1594 169.313 53.2833V56.2633H168.457V55.7767ZM168.457 54.5428C168.2 54.2138 167.754 54.0402 167.278 54.0402C166.66 54.0402 166.223 54.3965 166.223 54.9178C166.223 55.4391 166.66 55.7949 167.278 55.7949C167.754 55.7949 168.2 55.6213 168.457 55.2928V54.5428Z" fill="white"/>
<path d="M172.734 51.7354C173.6 51.7354 174.123 52.0831 174.456 52.512L173.885 53.0173C173.607 52.6434 173.238 52.4687 172.774 52.4687C171.87 52.4687 171.291 53.1359 171.291 54.0504C171.291 54.9648 171.87 55.641 172.774 55.641C172.992 55.6461 173.208 55.5986 173.402 55.5027C173.596 55.4069 173.762 55.2659 173.885 55.0925L174.455 55.5951C174.122 56.0224 173.6 56.3723 172.733 56.3723C171.344 56.3723 170.395 55.3756 170.395 54.0504C170.395 52.7251 171.347 51.7354 172.734 51.7354Z" fill="white"/>
<path d="M175.262 50.5849C175.263 50.4446 175.321 50.3103 175.424 50.2111C175.528 50.1118 175.667 50.0556 175.813 50.0544C175.959 50.0546 176.099 50.1105 176.203 50.21C176.306 50.3094 176.364 50.4442 176.365 50.5849C176.364 50.654 176.35 50.7224 176.322 50.7861C176.294 50.8499 176.253 50.9076 176.202 50.9561C176.151 51.0045 176.09 51.0427 176.023 51.0684C175.956 51.094 175.885 51.1067 175.813 51.1056C175.668 51.1061 175.529 51.0516 175.426 50.9541C175.323 50.8566 175.264 50.7239 175.262 50.5849ZM175.395 51.846H176.25V56.2612H175.395V51.846Z" fill="white"/>
<path d="M177.324 54.0492C177.324 52.7785 178.217 51.7364 179.644 51.7364C181.079 51.7364 181.963 52.7785 181.963 54.0492C181.963 55.3312 181.079 56.3712 179.644 56.3712C178.217 56.3712 177.324 55.3291 177.324 54.0492ZM181.069 54.0492C181.069 53.2176 180.566 52.4676 179.644 52.4676C178.731 52.4676 178.217 53.2154 178.217 54.0492C178.217 54.89 178.731 55.6399 179.644 55.6399C180.566 55.6399 181.069 54.89 181.069 54.0492ZM179.301 51.1787L180.67 49.8625H181.516L179.929 51.1787H179.301Z" fill="white"/>
<path d="M186.147 53.4366C186.147 52.7059 185.758 52.4677 185.167 52.4677C184.635 52.4677 184.15 52.7785 183.903 53.1086V56.2601H183.048V51.8459H183.903V52.4677C184.104 52.2424 184.353 52.0606 184.633 51.9344C184.913 51.8082 185.218 51.7404 185.527 51.7354C186.497 51.7354 187 52.2289 187 53.1615V56.2596H186.147V53.4366Z" fill="white"/>
<path d="M53.6255 60.8757C55.0037 60.8757 55.8591 61.9088 55.8591 63.2618V63.4626H52.2278C52.2945 64.2104 52.865 64.8338 53.7871 64.8338C54.2721 64.8338 54.8043 64.6511 55.1464 64.313L55.5453 64.8525C55.0892 65.2798 54.4426 65.5105 53.701 65.5105C52.3328 65.5105 51.3246 64.5779 51.3246 63.1886C51.3246 61.9088 52.2845 60.8757 53.6255 60.8757ZM52.2167 62.8686H55.0215C55.002 62.2811 54.5932 61.552 53.6238 61.552C52.7033 61.552 52.2656 62.2656 52.2167 62.8686Z" fill="white"/>
<path d="M60.0319 62.5787C60.0319 61.848 59.6431 61.6098 59.0526 61.6098C58.5204 61.6098 58.0349 61.9206 57.7877 62.2507V65.4022H56.9323V60.9869H57.7877V61.6087C57.9897 61.3834 58.239 61.2017 58.5193 61.0757C58.7995 60.9497 59.1043 60.8821 59.4137 60.8774C60.3836 60.8774 60.8868 61.371 60.8868 62.3036V65.4017H60.0319V62.5787Z" fill="white"/>
<path d="M66.1041 65.4005V60.4457H64.2504V59.3037H69.3054V60.4457H67.4611V65.4005H66.1041Z" fill="white"/>
<path d="M68.9176 63.1886C68.9176 61.9066 69.8964 60.8757 71.294 60.8757C72.6628 60.8757 73.5949 61.8634 73.5949 63.3072V63.5636H70.1819C70.258 64.1207 70.7235 64.587 71.5029 64.587C71.8917 64.587 72.435 64.4225 72.7294 64.1485L73.2621 64.8963C72.8055 65.2985 72.0834 65.5089 71.3696 65.5089C69.9725 65.5105 68.9176 64.6084 68.9176 63.1886ZM71.294 61.7998C70.543 61.7998 70.2197 62.3398 70.1625 62.7784H72.425C72.3967 62.3569 72.0923 61.7987 71.294 61.7987V61.7998Z" fill="white"/>
<path d="M74.1731 63.1886C74.1731 61.8356 75.1902 60.8757 76.6067 60.8757C77.5477 60.8757 78.1188 61.2689 78.4226 61.6711L77.6333 62.3842C77.415 62.0733 77.0822 61.9088 76.6634 61.9088C75.9318 61.9088 75.4185 62.4205 75.4185 63.1907C75.4185 63.961 75.9318 64.4796 76.6634 64.4796C76.8532 64.4828 77.0409 64.4412 77.21 64.3583C77.3791 64.2754 77.5245 64.1538 77.6333 64.0042L78.4226 64.7082C78.1188 65.1195 77.5477 65.5127 76.6067 65.5127C75.1902 65.5105 74.1731 64.5507 74.1731 63.1886Z" fill="white"/>
<path d="M82.3094 65.4005V62.7297C82.3094 62.1171 81.9761 61.9066 81.4634 61.9066C81.2588 61.9089 81.0576 61.9572 80.876 62.0478C80.6943 62.1383 80.5373 62.2685 80.4174 62.428V65.3983H79.2103V60.9831H80.4174V61.5637C80.618 61.3447 80.8655 61.17 81.1429 61.0517C81.4203 60.9333 81.721 60.874 82.0245 60.8779C83.0316 60.8779 83.5165 61.4264 83.5165 62.2859V65.4026L82.3094 65.4005Z" fill="white"/>
<path d="M84.4193 63.1886C84.4193 61.936 85.3314 60.8757 86.8429 60.8757C88.3644 60.8757 89.2766 61.936 89.2766 63.1886C89.2766 64.4503 88.3644 65.5105 86.8429 65.5105C85.3314 65.5105 84.4193 64.4481 84.4193 63.1886ZM88.0217 63.1886C88.0217 62.5028 87.594 61.9066 86.8429 61.9066C86.0919 61.9066 85.6764 62.5006 85.6764 63.1886C85.6764 63.883 86.0947 64.4775 86.8429 64.4775C87.5912 64.4775 88.0217 63.8835 88.0217 63.1886Z" fill="white"/>
<path d="M90.1698 65.4005V59.3037H91.3791V65.4005H90.1698Z" fill="white"/>
<path d="M92.2789 63.1886C92.2789 61.936 93.1916 60.8757 94.7031 60.8757C96.2246 60.8757 97.1367 61.936 97.1367 63.1886C97.1367 64.4503 96.2246 65.5105 94.7031 65.5105C93.1916 65.5105 92.2789 64.4481 92.2789 63.1886ZM95.8819 63.1886C95.8819 62.5028 95.4541 61.9066 94.7031 61.9066C93.9521 61.9066 93.5366 62.5006 93.5366 63.1886C93.5366 63.883 93.9549 64.4775 94.7031 64.4775C95.4514 64.4775 95.8819 63.8835 95.8819 63.1886Z" fill="white"/>
<path d="M100.549 65.4004L99.5027 63.9106L98.4472 65.4004H97.1068L98.7322 63.1335L97.2018 60.9851H98.5517L99.5021 62.3472L100.446 60.9851H101.796L100.256 63.1335L101.901 65.4004H100.549Z" fill="white"/>
<path d="M103.343 60.3181H102.497L103.77 59.002H104.881L103.343 60.3181ZM102.497 65.4005V60.9852H103.704V65.4005H102.497Z" fill="white"/>
<path d="M107.658 65.4004V64.9438C107.344 65.3 106.802 65.5105 106.204 65.5105C105.472 65.5105 104.606 65.0351 104.606 64.0475C104.606 63.0149 105.472 62.6218 106.204 62.6218C106.815 62.6218 107.354 62.8136 107.658 63.1608V62.5668C107.658 62.1192 107.259 61.8265 106.65 61.8265C106.15 61.8267 105.669 62.0134 105.309 62.3473L104.853 61.5706C105.414 61.0952 106.136 60.8762 106.859 60.8762C107.905 60.8762 108.866 61.279 108.866 62.5492V65.401L107.658 65.4004ZM107.658 64.3402V63.7921C107.459 63.5357 107.078 63.4075 106.689 63.4075C106.213 63.4075 105.823 63.6458 105.823 64.0752C105.823 64.4865 106.211 64.7242 106.689 64.7242C107.078 64.7242 107.459 64.596 107.658 64.3412V64.3402Z" fill="white"/>
<path d="M109.663 64.8246L110.186 64.0111C110.519 64.3129 111.203 64.6142 111.773 64.6142C112.296 64.6142 112.543 64.4133 112.543 64.1393C112.543 63.4075 109.815 64.002 109.815 62.2655C109.815 61.5252 110.49 60.8767 111.697 60.8767C112.369 60.8678 113.023 61.0807 113.551 61.4798L113.066 62.2751C112.788 61.992 112.267 61.7634 111.706 61.7634C111.269 61.7634 110.984 61.9552 110.984 62.202C110.984 62.8606 113.703 62.312 113.703 64.0945C113.703 64.8989 112.99 65.5116 111.716 65.5116C110.917 65.5105 110.148 65.2541 109.663 64.8246Z" fill="white"/>
<path d="M117.057 65.4005V59.3037H118.407V65.4005H117.057Z" fill="white"/>
<path d="M122.731 65.4005V62.7298C122.731 62.1171 122.398 61.9066 121.885 61.9066C121.681 61.9089 121.48 61.9573 121.298 62.0478C121.117 62.1383 120.96 62.2685 120.84 62.428V65.3984H119.633V60.9831H120.84V61.5637C121.04 61.3447 121.288 61.17 121.565 61.0516C121.842 60.9332 122.143 60.8739 122.446 60.8779C123.454 60.8779 123.939 61.4264 123.939 62.2859V65.4027L122.731 65.4005Z" fill="white"/>
<path d="M125.376 64.3039V62.0001H124.615V60.9852H125.376V59.7786H126.593V60.9852H127.524V62.0001H126.593V63.993C126.593 64.267 126.744 64.4775 127.011 64.4775C127.191 64.4775 127.363 64.4134 127.429 64.3493L127.685 65.2269C127.505 65.3823 127.182 65.5105 126.678 65.5105C125.83 65.5105 125.376 65.0891 125.376 64.3039Z" fill="white"/>
<path d="M128.053 63.1886C128.053 61.9066 129.032 60.8757 130.43 60.8757C131.799 60.8757 132.731 61.8634 132.731 63.3072V63.5636H129.319C129.396 64.1207 129.862 64.587 130.64 64.587C131.029 64.587 131.573 64.4225 131.867 64.1485L132.4 64.8963C131.943 65.2985 131.221 65.5089 130.508 65.5089C129.108 65.5105 128.053 64.6084 128.053 63.1886ZM130.43 61.7998C129.679 61.7998 129.356 62.3398 129.299 62.7784H131.561C131.533 62.3569 131.228 61.7987 130.43 61.7987L130.43 61.7998Z" fill="white"/>
<path d="M133.605 65.4005V59.3037H134.812V65.4005H133.605Z" fill="white"/>
<path d="M135.885 59.8155C135.885 59.6781 135.927 59.5439 136.007 59.4297C136.086 59.3155 136.199 59.2265 136.331 59.174C136.463 59.1214 136.608 59.1076 136.748 59.1344C136.888 59.1612 137.017 59.2274 137.118 59.3245C137.219 59.4216 137.287 59.5453 137.315 59.68C137.343 59.8147 137.329 59.9543 137.274 60.0812C137.22 60.2081 137.127 60.3165 137.008 60.3928C136.89 60.4691 136.75 60.5099 136.607 60.5099C136.416 60.5082 136.233 60.4345 136.098 60.3046C135.963 60.1748 135.887 59.9991 135.885 59.8155ZM136.009 65.4005V60.9853H137.216V65.4005H136.009Z" fill="white"/>
<path d="M141.255 65.4004L140.21 63.9106L139.154 65.4004H137.814L139.44 63.1335L137.91 60.9851H139.259L140.21 62.3472L141.151 60.9851H142.501L140.961 63.1335L142.605 65.4004H141.255Z" fill="white"/>
<path d="M142.586 63.1886C142.586 61.9066 143.564 60.8757 144.963 60.8757C146.331 60.8757 147.263 61.8634 147.263 63.3072V63.5636H143.85C143.926 64.1207 144.392 64.587 145.172 64.587C145.56 64.587 146.103 64.4225 146.398 64.1485L146.93 64.8963C146.474 65.2985 145.751 65.5089 145.038 65.5089C143.641 65.5105 142.586 64.6084 142.586 63.1886ZM144.963 61.7998C144.211 61.7998 143.888 62.3398 143.831 62.7784H146.095C146.065 62.3569 145.762 61.7987 144.963 61.7987V61.7998Z" fill="white"/>
<path d="M151.235 65.4005V62.7297C151.235 62.1171 150.902 61.9066 150.389 61.9066C150.185 61.9089 149.984 61.9572 149.802 62.0478C149.62 62.1383 149.463 62.2685 149.343 62.428V65.3983H148.136V60.9831H149.343V61.5637C149.544 61.3447 149.792 61.17 150.069 61.0517C150.346 60.9333 150.647 60.874 150.95 60.8779C151.958 60.8779 152.443 61.4264 152.443 62.2859V65.4026L151.235 65.4005Z" fill="white"/>
<path d="M153.877 64.3039V62.0001H153.116V60.9852H153.877V59.7786H155.095V60.9852H156.026V62.0001H155.095V63.993C155.095 64.267 155.247 64.4775 155.513 64.4775C155.693 64.4775 155.864 64.4134 155.931 64.3493L156.188 65.2269C156.007 65.3823 155.684 65.5105 155.18 65.5105C154.334 65.5105 153.877 65.0891 153.877 64.3039Z" fill="white"/>
<path d="M156.557 63.1886C156.557 61.9066 157.536 60.8757 158.934 60.8757C160.303 60.8757 161.235 61.8634 161.235 63.3072V63.5636H157.822C157.898 64.1207 158.364 64.587 159.143 64.587C159.532 64.587 160.075 64.4225 160.37 64.1485L160.902 64.8963C160.446 65.2985 159.723 65.5089 159.01 65.5089C157.612 65.5105 156.557 64.6084 156.557 63.1886ZM158.934 61.7998C158.183 61.7998 157.86 62.3398 157.803 62.7784H160.065C160.039 62.3569 159.732 61.7987 158.934 61.7987V61.7998Z" fill="white"/>
<path d="M161.709 64.8246L162.232 64.0111C162.565 64.3129 163.249 64.6142 163.82 64.6142C164.342 64.6142 164.59 64.4133 164.59 64.1393C164.59 63.4075 161.861 64.002 161.861 62.2655C161.861 61.5252 162.536 60.8767 163.744 60.8767C164.415 60.8678 165.069 61.0807 165.597 61.4798L165.112 62.2751C164.835 61.992 164.313 61.7634 163.752 61.7634C163.315 61.7634 163.03 61.9552 163.03 62.202C163.03 62.8606 165.749 62.312 165.749 64.0945C165.749 64.8989 165.036 65.5116 163.762 65.5116C162.964 65.5105 162.194 65.2541 161.709 64.8246Z" fill="white"/>
<path d="M68.4327 25.1865V33.4119V41.6372H76.9868V33.4119V25.1865V16.9612H68.4327V25.1865Z" fill="white"/>
<path d="M34.2163 33.4119V41.6372H42.7704V33.4119V25.1865H34.2163V33.4119Z" fill="white"/>
<path d="M68.4326 0.510498H59.8785V8.73585H68.4326V0.510498Z" fill="white"/>
<path d="M111.203 16.9612V25.1865V33.4119H102.649H94.0951V25.1865V16.9612V8.73584H85.541V16.9612V25.1865V33.4119V41.6373H94.0951H102.649H111.203H119.757V33.4119V25.1865V16.9612V8.73584H111.203V16.9612Z" fill="white"/>
<path d="M34.2163 8.73584V16.9612H42.7704H51.3245V25.1865V33.4119V41.6373H59.8786V33.4119V25.1865V16.9612V8.73584H51.3245H34.2163Z" fill="white"/>
<path d="M0 8.73584V16.9612V25.1865V33.4119V41.6373H8.55408H17.1082H25.6623V33.4119H17.1082H8.55408V25.1865V16.9612H17.1082H25.6623V8.73584H17.1082H0Z" fill="white"/>
<path d="M153.973 25.1865V33.4119H145.419H136.865H128.311V41.6372H136.865H145.419H153.973H162.527V33.4119V25.1865H153.973Z" fill="white"/>
<path d="M136.649 17.0044H145.203H153.757H162.311V8.77905H153.757H145.203H136.649H128.094V17.0033V17.0044V25.2287H136.649V17.0044Z" fill="white"/>
</svg>
