<svg version="1.1" id="Logo" xmlns="http://www.w3.org/2000/svg" xmlns:xlink="http://www.w3.org/1999/xlink" x="0px" y="0px" width="170px" height="40px" viewBox="0 0 851.2 147.5" style="enable-background:new 0 0 851.2 147.5;" xml:space="preserve"> <style type="text/css"> .st0{fill:#fff;} </style> <g> <g> <g> <g> <g> <g> <circle class="st0" cx="22.1" cy="22.1" r="22.1"></circle> </g> </g> <g> <g> <circle class="st0" cx="74" cy="22.1" r="22.1"></circle> </g> </g> <g> <g> <circle class="st0" cx="125.8" cy="22.1" r="22.1"></circle> </g> </g> <g> <g> <circle class="st0" cx="74" cy="74" r="22.1"></circle> </g> </g> <g> <g> <circle class="st0" cx="74" cy="125.8" r="22.1"></circle> </g> </g> </g> </g> <g> <g> <path class="st0" d="M195,56.8h-20.6V44.5h53.9v12.2h-20.6v56.3H195V56.8z"></path> </g> <g> <path class="st0" d="M271.3,98.4c-1.1,3.9-7.2,15.7-23,15.7c-14.7,0-25.5-10.8-25.5-26c0-15.2,10.8-26,25.5-26 c13.7,0,24.5,10.8,24.5,25c0,1.5-0.2,2.6-0.3,3.5l-0.2,1.4h-37.2c1.1,7,6.3,11.8,13.2,11.8c5.8,0,9.3-3.3,10.3-5.4H271.3z M260.5,83.7c-1.1-6.4-5.3-11.3-12.2-11.3c-7.4,0-11.8,4.9-13.2,11.3H260.5z"></path> </g> <g> <path class="st0" d="M280.1,44.5h12.2v68.6h-12.2V44.5z"></path> </g> <g> <path class="st0" d="M348.2,98.4c-1.1,3.9-7.2,15.7-23,15.7c-14.7,0-25.5-10.8-25.5-26c0-15.2,10.8-26,25.5-26 c13.7,0,24.5,10.8,24.5,25c0,1.5-0.2,2.6-0.3,3.5l-0.2,1.4H312c1.1,7,6.3,11.8,13.2,11.8c5.8,0,9.3-3.3,10.3-5.4H348.2z M337.4,83.7c-1.1-6.4-5.3-11.3-12.2-11.3c-7.4,0-11.8,4.9-13.2,11.3H337.4z"></path> </g> <g> <path class="st0" d="M360.9,74.9h-8.3V63.1h8.3v-7.3c0-7.4,4.8-12.2,12.2-12.2H384v10.8h-7.3c-2,0-3.4,1.5-3.4,3.4v5.4H384v11.8 h-10.8v38.2h-12.2V74.9z"></path> </g> <g> <path class="st0" d="M436.8,88.1c0,15.2-10.8,26-25.5,26c-14.7,0-25.5-10.8-25.5-26c0-15.2,10.8-26,25.5-26 C426,62.1,436.8,72.9,436.8,88.1z M424.5,88.1c0-8.8-5.9-14.7-13.2-14.7S398,79.3,398,88.1c0,8.8,5.9,14.7,13.2,14.7 S424.5,96.9,424.5,88.1z"></path> </g> <g> <path class="st0" d="M444.1,63.1h11.3l1,4.9h0.5c0.9-1.1,2.1-2.1,3.3-2.9c2.3-1.5,5.7-2.9,10.4-2.9c11.3,0,19.6,8.3,19.6,21.1 v29.9h-12.2V84.2c0-6.4-4.4-10.8-10.8-10.8c-6.4,0-10.8,4.4-10.8,10.8v28.9h-12.2V63.1z"></path> </g> <g> <path class="st0" d="M568.1,94.5c-1.6,7.8-7.7,19.6-23.5,19.6c-14.7,0-25.5-10.8-25.5-26c0-15.2,10.8-26,25.5-26 c15.8,0,21.9,11.8,23.5,19.1h-12.2c-1.1-2.8-3.9-7.8-11.3-7.8c-7.3,0-13.2,5.9-13.2,14.7c0,8.8,5.9,14.7,13.2,14.7 c7.3,0,10.2-4.9,11.3-8.3H568.1z"></path> </g> <g> <path class="st0" d="M605.1,108.2h-0.5c-0.9,1.1-2.1,2.1-3.4,2.9c-2.4,1.5-5.8,2.9-10.8,2.9c-11.4,0-18.1-7-18.1-15.2 c0-9.8,6.9-16.7,20.6-16.7h11.3v-1c0-5.5-3.3-9.3-8.8-9.3c-5.5,0-8.3,3.5-8.8,6.4h-12.2c1.1-8.2,7.7-16.2,21.1-16.2 c12.7,0,21.1,8.4,21.1,19.1v31.8h-10.3L605.1,108.2z M604.1,91.5h-10.3c-6.4,0-9.3,2.4-9.3,6.4c0,3.9,2.8,6.4,7.8,6.4 c7.4,0,11.8-4.3,11.8-11.3V91.5z"></path> </g> <g> <path class="st0" d="M499.5,63.1h12.2v50h-12.2V63.1z"></path> </g> <g> <g> <circle class="st0" cx="505.6" cy="48.7" r="7.2"></circle> </g> </g> <g> <polygon class="st0" points="415.7,42.1 428.4,42.1 416.7,56.3 406.4,56.3 				"></polygon> </g> </g> </g> <g> <path class="st0" d="M666.4,56.8h-20.6V44.5h53.9v12.2h-20.6v56.3h-12.7V56.8z"></path> <path class="st0" d="M742.8,98.4c-1.1,3.9-7.3,15.7-23,15.7c-14.7,0-25.5-10.8-25.5-26c0-15.2,10.8-26,25.5-26 c13.7,0,24.5,10.8,24.5,25c0,1.5-0.2,2.6-0.3,3.5l-0.2,1.4h-37.2c1.1,7,6.3,11.8,13.2,11.8c5.8,0,9.3-3.3,10.3-5.4H742.8z M732,83.7c-1.1-6.4-5.3-11.3-12.2-11.3c-7.4,0-11.8,4.9-13.2,11.3H732z"></path> <path class="st0" d="M798.3,94.5c-1.6,7.8-7.7,19.6-23.5,19.6c-14.7,0-25.5-10.8-25.5-26c0-15.2,10.8-26,25.5-26 c15.8,0,21.9,11.8,23.5,19.1h-12.2c-1.1-2.8-3.9-7.8-11.3-7.8c-7.4,0-13.2,5.9-13.2,14.7s5.9,14.7,13.2,14.7 c7.3,0,10.2-4.9,11.3-8.3H798.3z"></path> <path class="st0" d="M805.2,44.5h12.2V68h0.5c0.9-1.1,2.1-2.1,3.3-2.9c2.3-1.5,5.7-2.9,10.4-2.9c11.3,0,19.6,8.3,19.6,21.1v29.9 H839V84.2c0-6.4-4.4-10.8-10.8-10.8c-6.4,0-10.8,4.4-10.8,10.8v28.9h-12.2V44.5z"></path> </g> </g> </svg>